<svg width="80" height="80" viewBox="0 0 80 80" fill="none" xmlns="http://www.w3.org/2000/svg">
<path d="M39.9994 75.8333C20.2327 75.8333 4.16602 59.7667 4.16602 40C4.16602 20.2333 20.2327 4.16666 39.9994 4.16666C59.766 4.16666 75.8327 20.2333 75.8327 40C75.8327 59.7667 59.766 75.8333 39.9994 75.8333ZM39.9994 9.16666C22.9994 9.16666 9.16602 23 9.16602 40C9.16602 57 22.9994 70.8333 39.9994 70.8333C56.9994 70.8333 70.8327 57 70.8327 40C70.8327 23 56.9994 9.16666 39.9994 9.16666Z" fill="#10054C"/>
<path d="M53.3327 42.5H26.666C25.2993 42.5 24.166 41.3667 24.166 40C24.166 38.6333 25.2993 37.5 26.666 37.5H53.3327C54.6993 37.5 55.8327 38.6333 55.8327 40C55.8327 41.3667 54.6993 42.5 53.3327 42.5Z" fill="#14263A"/>
<path d="M40 55.8333C38.6333 55.8333 37.5 54.7 37.5 53.3333V26.6667C37.5 25.3 38.6333 24.1667 40 24.1667C41.3667 24.1667 42.5 25.3 42.5 26.6667V53.3333C42.5 54.7 41.3667 55.8333 40 55.8333Z" fill="#14263A"/>
</svg>
