<svg width="56" height="55" viewBox="0 0 56 55" fill="none" xmlns="http://www.w3.org/2000/svg">
<path d="M11.7311 52.1355C10.7686 52.1355 9.8748 51.9063 9.07272 51.448C7.30814 50.4167 6.2998 48.3313 6.2998 45.7417V13.4292C6.2998 7.60837 11.0436 2.86462 16.8644 2.86462H38.979C44.7998 2.86462 49.5436 7.60837 49.5436 13.4292V45.7188C49.5436 48.3084 48.5352 50.3938 46.7706 51.425C45.0061 52.4563 42.6915 52.3417 40.4227 51.0813L29.2394 44.8709C28.5748 44.5042 27.2686 44.5042 26.604 44.8709L15.4206 51.0813C14.1831 51.7688 12.9227 52.1355 11.7311 52.1355ZM16.8873 6.30212C12.9686 6.30212 9.76022 9.51046 9.76022 13.4292V45.7188C9.76022 47.0709 10.1498 48.0792 10.8373 48.4688C11.5248 48.8584 12.6019 48.7438 13.7706 48.0792L24.954 41.8688C26.6498 40.9292 29.2165 40.9292 30.9123 41.8688L42.0956 48.0792C43.2644 48.7438 44.3415 48.8813 45.029 48.4688C45.7165 48.0563 46.1061 47.048 46.1061 45.7188V13.4292C46.1061 9.51046 42.8977 6.30212 38.979 6.30212H16.8873V6.30212Z" fill="#9791B7"/>
</svg>
