<svg width="60" height="60" viewBox="0 0 60 60" fill="none" xmlns="http://www.w3.org/2000/svg">
<path d="M43.1989 28C42.7239 28 42.2488 27.8249 41.8738 27.4499C41.1488 26.7249 41.1488 25.5249 41.8738 24.7999L49.8488 16.8249L41.8738 8.84987C41.1488 8.12487 41.1488 6.92488 41.8738 6.19988C42.5988 5.47488 43.7988 5.47488 44.5238 6.19988L53.8239 15.5C54.1739 15.85 54.3738 16.3249 54.3738 16.8249C54.3738 17.3249 54.1739 17.8 53.8239 18.15L44.5238 27.4499C44.1488 27.7999 43.6739 28 43.1989 28Z" fill="white"/>
<path d="M52.5 18.7H7.5C6.475 18.7 5.625 17.85 5.625 16.825C5.625 15.8 6.475 14.95 7.5 14.95H52.5C53.525 14.95 54.375 15.8 54.375 16.825C54.375 17.85 53.525 18.7 52.5 18.7Z" fill="white"/>
<path d="M16.7999 54.3749C16.3249 54.3749 15.85 54.2 15.475 53.825L6.17493 44.5249C5.82493 44.1749 5.625 43.7 5.625 43.2C5.625 42.7 5.82493 42.2249 6.17493 41.8749L15.475 32.575C16.2 31.85 17.4 31.85 18.125 32.575C18.85 33.3 18.85 34.5 18.125 35.225L10.15 43.2L18.125 51.1749C18.85 51.8999 18.85 53.1 18.125 53.825C17.775 54.2 17.2999 54.3749 16.7999 54.3749Z" fill="white"/>
<path d="M52.5 45.05H7.5C6.475 45.05 5.625 44.2 5.625 43.175C5.625 42.15 6.475 41.3 7.5 41.3H52.5C53.525 41.3 54.375 42.15 54.375 43.175C54.375 44.2 53.525 45.05 52.5 45.05Z" fill="white"/>
</svg>
