<svg width="85" height="60" viewBox="0 0 85 60" fill="none" xmlns="http://www.w3.org/2000/svg">
<path d="M1.49228 33.5683L1.49232 33.5683C1.49173 33.5671 1.50405 33.5908 1.54227 33.6498C1.57746 33.7041 1.6256 33.7747 1.68787 33.8626C1.81231 34.0382 1.98303 34.2683 2.19825 34.5503C2.62813 35.1136 3.22348 35.868 3.9549 36.7766C5.41703 38.593 7.41307 41.0137 9.69485 43.7301C10.6861 44.9102 11.594 45.9916 12.4263 46.983C17.0325 52.4694 19.3227 55.1973 20.6149 56.6264C21.3815 57.4743 21.7539 57.8155 22.0194 58.0025C22.1982 58.1283 22.315 58.1815 22.5199 58.2748C22.6331 58.3263 22.7733 58.3901 22.9658 58.4852L22.9658 58.4853L24.3687 59.1787L46.5699 59.2367C54.2416 59.2568 59.9323 59.2543 63.8131 59.2282C65.7539 59.2151 67.2389 59.1962 68.2914 59.1713C69.3768 59.1457 69.9368 59.1142 70.087 59.0885L70.2135 59.8277L70.087 59.0885C75.6369 58.139 80.6897 53.9016 82.6246 48.5668C82.8861 47.8459 83.0669 47.3285 83.2026 46.6911C83.3386 46.0522 83.4336 45.2702 83.4955 44.0386C83.6201 41.5608 83.6068 37.3799 83.5714 29.1045L83.5065 13.9162L82.8674 12.0706C81.623 8.47743 79.3456 5.50108 76.2869 3.45519L76.7024 2.83402L76.2869 3.45518C74.5379 2.28526 72.152 1.30049 70.2164 0.94275C70.0881 0.919044 69.5478 0.886581 68.4709 0.858895C67.4313 0.832169 65.9597 0.810421 64.0371 0.793597C60.1926 0.759956 54.5574 0.746101 46.9952 0.750936C37.8076 0.756679 32.2295 0.772251 28.8546 0.8154C27.166 0.836989 26.0379 0.865393 25.2884 0.902347C24.5045 0.940997 24.2148 0.987166 24.1336 1.01227L1.49228 33.5683ZM1.49228 33.5683C0.461022 31.4803 0.501117 28.6025 1.63276 26.3381L1.0221 26.0329M1.49228 33.5683L1.0221 26.0329M1.0221 26.0329L1.63277 26.3381C1.69134 26.2209 1.93076 25.8686 2.42275 25.222C2.8947 24.6017 3.55742 23.7635 4.41042 22.7083C6.11568 20.5988 8.56921 17.6373 11.751 13.8489C16.8759 7.74711 19.4491 4.69099 21.0367 3.06158M1.0221 26.0329L21.0367 3.06158M26.0802 52.3098L25.8554 52.0419L16.8894 41.3535L17.3491 40.9679L16.8894 41.3535C14.4229 38.4131 12.18 35.7197 10.5533 33.7487C9.7402 32.7635 9.07979 31.9573 8.622 31.3906C8.39354 31.1077 8.21313 30.8815 8.08875 30.7214C8.02729 30.6423 7.97521 30.5739 7.93674 30.5207C7.91848 30.4954 7.89652 30.4643 7.87665 30.4331C7.86756 30.4187 7.8505 30.3913 7.83312 30.3573C7.82466 30.3408 7.80948 30.3098 7.79478 30.2699L7.79447 30.269C7.78521 30.2439 7.74798 30.1427 7.74798 30.0079C7.74798 29.8732 7.78521 29.772 7.79447 29.7468L7.79478 29.746C7.80948 29.706 7.82466 29.6751 7.83312 29.6585C7.8505 29.6245 7.86756 29.5971 7.87665 29.5828C7.89652 29.5515 7.91848 29.5204 7.93674 29.4952C7.97521 29.442 8.02729 29.3735 8.08875 29.2944C8.21313 29.1343 8.39354 28.9081 8.622 28.6253C9.07979 28.0585 9.7402 27.2523 10.5533 26.2671C12.18 24.2961 14.4229 21.6027 16.8894 18.6623L17.464 19.1443L16.8894 18.6623L25.8554 7.97399L26.0802 7.70604L26.43 7.706L46.8806 7.70379C52.9734 7.70308 58.2084 7.72212 62.0094 7.75585C63.9095 7.77271 65.4534 7.79326 66.5677 7.81689C67.1245 7.82871 67.577 7.84135 67.9145 7.85483C68.2292 7.8674 68.4949 7.88212 68.6386 7.90566L26.0802 52.3098ZM26.0802 52.3098L26.43 52.3098M26.0802 52.3098L26.43 52.3098M26.43 52.3098L46.8806 52.3121C52.9734 52.3128 58.2084 52.2937 62.0094 52.26M26.43 52.3098L62.0094 52.26M40.7799 30.0079L40.2554 30.5363L37.2051 33.6089C35.2645 35.5638 34.2991 36.6263 33.8603 37.4325C33.6576 37.805 33.5851 38.0945 33.5772 38.3781C33.5688 38.6793 33.6314 39.0232 33.7752 39.5177L33.7752 39.5177C34.2055 40.9979 35.7258 42.1529 37.1635 42.1529C37.6766 42.1529 38.1782 42.0167 38.9442 41.4882C39.7397 40.9393 40.7661 40.0051 42.3122 38.4546L42.3123 38.4546L45.2263 35.5327L45.7536 35.004L46.2846 35.5289L49.5177 38.7249C51.1832 40.3713 52.0953 41.2261 52.7649 41.6824C53.0834 41.8995 53.3215 42.0075 53.5374 42.0673C53.7571 42.1282 53.9943 42.1507 54.3356 42.1507C56.1688 42.1507 57.8036 40.513 57.8123 38.6115V38.6114C57.814 38.2431 57.7897 37.9755 57.7235 37.728C57.6583 37.4844 57.5428 37.2241 57.3212 36.8906C56.8566 36.1913 55.9949 35.265 54.3577 33.6155L54.89 33.0872L54.3577 33.6155L51.3016 30.5362L50.7773 30.0079L51.3016 29.4796L54.3577 26.4003L40.7799 30.0079ZM40.7799 30.0079L40.2554 29.4795M40.7799 30.0079L40.2554 29.4795M40.2554 29.4795L37.2051 26.4069C35.2645 24.452 34.2991 23.3895 33.8603 22.5833C33.6576 22.2109 33.5851 21.9213 33.5772 21.6378C33.5688 21.3366 33.6314 20.9926 33.7752 20.4982C34.0576 19.527 34.9354 18.5362 35.8949 18.1219C36.1855 17.9965 36.7708 17.8743 37.1268 17.8708C37.6661 17.8656 38.167 17.9947 38.9257 18.5131C39.7196 19.0555 40.7447 19.9893 42.3123 21.5612L42.8433 21.0316L40.2554 29.4795ZM21.0367 3.06158C21.8257 2.25176 22.3348 1.83333 22.7613 1.57288M21.0367 3.06158L22.7613 1.57288M22.7613 1.57288C23.1793 1.31769 23.5496 1.19333 24.1334 1.01231L22.7613 1.57288ZM62.0094 52.26C63.9095 52.2431 65.4534 52.2226 66.5677 52.199M62.0094 52.26L66.5677 52.199M66.5677 52.199C67.1245 52.1871 67.577 52.1745 67.9145 52.161M66.5677 52.199L67.9145 52.161M67.9145 52.161C68.2292 52.1484 68.4949 52.1337 68.6386 52.1102L67.9145 52.161ZM76.4378 15.7049C75.7824 11.7014 72.6422 8.56122 68.6387 7.90568V52.1102C72.6422 51.4546 75.7824 48.3144 76.4378 44.311C76.48 44.0536 76.508 43.426 76.5313 42.6081C76.5554 41.7595 76.5754 40.6347 76.5914 39.328C76.6235 36.7136 76.6394 33.3601 76.6394 30.0079C76.6394 26.6558 76.6235 23.3022 76.5914 20.6879C76.5754 19.3811 76.5554 18.2563 76.5313 17.4078C76.508 16.5899 76.48 15.9623 76.4378 15.7049Z" fill="black" stroke="white" stroke-width="1.5"/>
</svg>
