<svg width="60" height="60" viewBox="0 0 60 60" fill="none" xmlns="http://www.w3.org/2000/svg">
<path fill-rule="evenodd" clip-rule="evenodd" d="M0 11.5385V23.0769H11.5385H23.0769V16.1538V9.23077H25.3846H27.6923V13.8462V18.4615H30H32.3077V13.8462V9.23077H30H27.6923V6.92308V4.61538H30H32.3077V2.30769V0H30H27.6923V2.30769V4.61538H25.3846H23.0769V2.30769V0H11.5385H0V11.5385ZM36.9231 11.5385V23.0769H41.5385H46.1538V25.3846V27.6923H39.2308H32.3077V25.3846V23.0769H30H27.6923V27.6923V32.3077H25.3846H23.0769V30V27.6923H11.5385H0V30V32.3077H4.61538H9.23077V34.6154V36.9231H6.92308H4.61538V39.2308V41.5385H2.30769H0V46.1538V50.7692H2.30769H4.61538V53.0769V55.3846H2.30769H0V57.6923V60H2.30769H4.61538V57.6923V55.3846H6.92308H9.23077V57.6923V60H20.7692H32.3077V57.6923V55.3846H30H27.6923V53.0769V50.7692H25.3846H23.0769V53.0769V55.3846H18.4615H13.8462V53.0769V50.7692H16.1538H18.4615V48.4615V46.1538H20.7692H23.0769V41.5385V36.9231H25.3846H27.6923V34.6154V32.3077H36.9231H46.1538V34.6154V36.9231H39.2308H32.3077V39.2308V41.5385H30H27.6923V43.8462V46.1538H30H32.3077V48.4615V50.7692H34.6154H36.9231V55.3846V60H48.4615H60V48.4615V36.9231H55.3846H50.7692V34.6154V32.3077H55.3846H60V30V27.6923H55.3846H50.7692V25.3846V23.0769H55.3846H60V11.5385V0H48.4615H36.9231V11.5385ZM18.4615 11.5385V18.4615H11.5385H4.61538V11.5385V4.61538H11.5385H18.4615V11.5385ZM55.3846 11.5385V18.4615H48.4615H41.5385V11.5385V4.61538H48.4615H55.3846V11.5385ZM9.23077 11.5385V13.8462H11.5385H13.8462V11.5385V9.23077H11.5385H9.23077V11.5385ZM46.1538 11.5385V13.8462H48.4615H50.7692V11.5385V9.23077H48.4615H46.1538V11.5385ZM50.7692 30V32.3077H48.4615H46.1538V30V27.6923H48.4615H50.7692V30ZM23.0769 34.6154V36.9231H20.7692H18.4615V41.5385V46.1538H16.1538H13.8462V39.2308V32.3077H18.4615H23.0769V34.6154ZM9.23077 46.1538V50.7692H6.92308H4.61538V46.1538V41.5385H6.92308H9.23077V46.1538ZM36.9231 43.8462V46.1538H34.6154H32.3077V43.8462V41.5385H34.6154H36.9231V43.8462ZM55.3846 48.4615V55.3846H48.4615H41.5385V48.4615V41.5385H48.4615H55.3846V48.4615ZM46.1538 48.4615V50.7692H48.4615H50.7692V48.4615V46.1538H48.4615H46.1538V48.4615Z" fill="#14263A"/>
</svg>
