<svg width="30" height="30" viewBox="0 0 30 30" fill="none" xmlns="http://www.w3.org/2000/svg">
<path fill-rule="evenodd" clip-rule="evenodd" d="M2.7172 0.0879927C1.67903 0.318776 0.732409 1.08874 0.301302 2.05299C-0.00527541 2.7386 -0.01248 2.86242 0.00579513 7.1124L0.0227817 11.0441L0.180639 11.4765C0.561841 12.5203 1.37784 13.32 2.40511 13.6566L2.83435 13.7971H6.90526H10.9762L11.4054 13.6566C12.4532 13.3133 13.3039 12.4626 13.6472 11.4148L13.7877 10.9856V6.91466V2.84374L13.6472 2.41451C13.3106 1.38723 12.5109 0.571231 11.4671 0.190029L11.0347 0.0321714L7.0517 0.0210423C3.91346 0.0122561 2.99408 0.0264311 2.7172 0.0879927ZM18.913 0.0942602C17.6191 0.373133 16.5219 1.48107 16.2481 2.78516C16.1212 3.38953 16.1212 10.4398 16.2481 11.0441C16.5249 12.3625 17.6239 13.4615 18.9423 13.7383C19.5466 13.8652 26.5969 13.8652 27.2012 13.7383C28.5196 13.4615 29.6186 12.3625 29.8954 11.0441C30.0223 10.4398 30.0223 3.38953 29.8954 2.78516C29.6186 1.46677 28.5196 0.367802 27.2012 0.09098C26.6141 -0.0322604 19.487 -0.0294488 18.913 0.0942602ZM10.8004 2.45656C11.084 2.58742 11.2625 2.77286 11.3834 3.06234C11.5199 3.38901 11.5199 10.4403 11.3834 10.767C11.2625 11.0564 11.084 11.2419 10.8004 11.3727C10.5807 11.4741 10.3396 11.4809 6.91803 11.4822C3.75578 11.4833 3.24097 11.4714 3.05295 11.3928C2.76347 11.2719 2.57803 11.0934 2.44717 10.8098C2.34578 10.5901 2.33898 10.349 2.33775 6.92742C2.33664 3.76517 2.34853 3.25036 2.42714 3.06234C2.54804 2.77286 2.72651 2.58742 3.01007 2.45656C3.22996 2.35511 3.46976 2.34843 6.90526 2.34843C10.3408 2.34843 10.5806 2.35511 10.8004 2.45656ZM27.0747 2.52158C27.1937 2.60212 27.3631 2.77122 27.4511 2.89733L27.6113 3.12659V6.91466V10.7027L27.4511 10.932C27.3631 11.0581 27.1937 11.2272 27.0747 11.3077L26.8584 11.4542H23.0711H19.2837L19.0544 11.294C18.9283 11.206 18.7592 11.0366 18.6787 10.9176L18.5323 10.7014L18.5159 7.04873C18.5052 4.65579 18.5205 3.31819 18.5604 3.17017C18.6335 2.89856 19.0279 2.4848 19.2861 2.40871C19.3911 2.37778 21.0476 2.3591 23.164 2.36495L26.8585 2.37514L27.0747 2.52158ZM2.7172 16.2545C1.67903 16.4853 0.732409 17.2553 0.301302 18.2195C-0.00527541 18.9051 -0.01248 19.0289 0.00579513 23.2789L0.0227817 27.2107L0.180639 27.643C0.561841 28.6869 1.37784 29.4865 2.40511 29.8231L2.83435 29.9637H6.90526H10.9762L11.4054 29.8231C12.4532 29.4798 13.3039 28.6292 13.6472 27.5813L13.7877 27.1521V23.0812V19.0103L13.6472 18.581C13.3106 17.5537 12.5109 16.7377 11.4671 16.3565L11.0347 16.1987L7.0517 16.1876C3.91346 16.1788 2.99408 16.1929 2.7172 16.2545ZM18.913 16.2608C17.6191 16.5396 16.5219 17.6476 16.2481 18.9517C16.1212 19.5561 16.1212 26.6063 16.2481 27.2107C16.5249 28.5291 17.6239 29.628 18.9423 29.9048C19.5466 30.0317 26.5969 30.0317 27.2012 29.9048C28.5196 29.628 29.6186 28.5291 29.8954 27.2107C30.0223 26.6063 30.0223 19.5561 29.8954 18.9517C29.6186 17.6333 28.5196 16.5343 27.2012 16.2575C26.6141 16.1343 19.487 16.1371 18.913 16.2608ZM10.8004 18.6231C11.084 18.7539 11.2625 18.9394 11.3834 19.2289C11.5199 19.5555 11.5199 26.6068 11.3834 26.9335C11.2625 27.223 11.084 27.4084 10.8004 27.5393C10.5807 27.6407 10.3396 27.6475 6.91803 27.6487C3.75578 27.6498 3.24097 27.6379 3.05295 27.5593C2.76347 27.4384 2.57803 27.2599 2.44717 26.9764C2.34578 26.7566 2.33898 26.5155 2.33775 23.0939C2.33664 19.9317 2.34853 19.4169 2.42714 19.2289C2.54804 18.9394 2.72651 18.7539 3.01007 18.6231C3.22996 18.5216 3.46976 18.515 6.90526 18.515C10.3408 18.515 10.5806 18.5216 10.8004 18.6231ZM27.0747 18.6881C27.1937 18.7686 27.3631 18.9377 27.4511 19.0639L27.6113 19.2931V23.0812V26.8692L27.4511 27.0985C27.3631 27.2246 27.1937 27.3937 27.0747 27.4742L26.8584 27.6207H23.0711H19.2837L19.0544 27.4605C18.9283 27.3725 18.7592 27.2031 18.6787 27.0841L18.5323 26.8679L18.5159 23.2152C18.5052 20.8223 18.5205 19.4847 18.5604 19.3367C18.6335 19.0651 19.0279 18.6513 19.2861 18.5752C19.3911 18.5443 21.0476 18.5256 23.164 18.5315L26.8585 18.5417L27.0747 18.6881Z" fill="#9791B7"/>
</svg>
