<svg width="65" height="65" viewBox="0 0 65 65" fill="none" xmlns="http://www.w3.org/2000/svg">
<path d="M47.2598 61.6146C44.1993 61.6146 40.9764 60.8833 37.6452 59.475C34.3952 58.0937 31.1181 56.1979 27.9223 53.8958C24.7535 51.5667 21.6931 48.9667 18.7952 46.1229C15.9243 43.225 13.3243 40.1646 11.0223 37.0229C8.6931 33.7729 6.82435 30.5229 5.49727 27.3812C4.08893 24.0229 3.38477 20.7729 3.38477 17.7125C3.38477 15.6 3.76393 13.5958 4.49518 11.7271C5.25352 9.80416 6.47227 8.01666 8.12435 6.47291C10.2098 4.41458 12.5931 3.38541 15.1389 3.38541C16.1952 3.38541 17.2785 3.62916 18.1993 4.0625C19.2556 4.55 20.1493 5.28125 20.7993 6.25625L27.0827 15.1125C27.6514 15.8979 28.0848 16.6562 28.3827 17.4146C28.7348 18.2271 28.9243 19.0396 28.9243 19.825C28.9243 20.8542 28.6264 21.8562 28.0577 22.8042C27.6514 23.5354 27.0285 24.3208 26.2431 25.1062L24.4014 27.0292C24.4285 27.1104 24.4556 27.1646 24.4827 27.2187C24.8077 27.7875 25.4577 28.7625 26.7035 30.225C28.0306 31.7417 29.2764 33.1229 30.5223 34.3958C32.1202 35.9667 33.4473 37.2125 34.6931 38.2417C36.2368 39.5417 37.2389 40.1917 37.8348 40.4896L37.7806 40.625L39.7577 38.675C40.5973 37.8354 41.4098 37.2125 42.1952 36.8062C43.6848 35.8854 45.5806 35.7229 47.4764 36.5083C48.1806 36.8062 48.9389 37.2125 49.7514 37.7812L58.7431 44.1729C59.7452 44.85 60.4764 45.7167 60.9098 46.7458C61.316 47.775 61.5056 48.7229 61.5056 49.6708C61.5056 50.9708 61.2077 52.2708 60.6389 53.4896C60.0702 54.7083 59.366 55.7646 58.4723 56.7396C56.9285 58.4458 55.2493 59.6646 53.2993 60.45C51.4306 61.2083 49.3993 61.6146 47.2598 61.6146ZM15.1389 7.44791C13.6493 7.44791 12.2681 8.09791 10.941 9.39791C9.69518 10.5625 8.82852 11.8354 8.28685 13.2167C7.7181 14.625 7.44727 16.1146 7.44727 17.7125C7.44727 20.2312 8.0431 22.9667 9.23477 25.7833C10.4535 28.6542 12.1598 31.6333 14.3264 34.6125C16.4931 37.5917 18.9577 40.4896 21.666 43.225C24.3743 45.9062 27.2993 48.3979 30.3056 50.5917C33.2306 52.7312 36.2368 54.4646 39.216 55.7104C43.8473 57.6875 48.1806 58.1479 51.7556 56.6583C53.1368 56.0896 54.3556 55.2229 55.466 53.9771C56.0889 53.3 56.5764 52.5687 56.9827 51.7021C57.3077 51.025 57.4702 50.3208 57.4702 49.6167C57.4702 49.1833 57.3889 48.75 57.1723 48.2625C57.091 48.1 56.9285 47.8021 56.4139 47.45L47.4223 41.0583C46.8806 40.6792 46.3931 40.4083 45.9327 40.2187C45.3368 39.975 45.0931 39.7312 44.1723 40.3C43.6306 40.5708 43.1431 40.9771 42.6014 41.5187L40.5431 43.55C39.4868 44.5792 37.8618 44.8229 36.616 44.3625L35.8848 44.0375C34.7743 43.4417 33.4743 42.5208 32.0389 41.3021C30.7389 40.1917 29.3306 38.8917 27.6243 37.2125C26.2973 35.8583 24.9702 34.4229 23.5889 32.825C22.316 31.3354 21.3952 30.0625 20.8264 29.0062L20.5014 28.1937C20.3389 27.5708 20.2848 27.2187 20.2848 26.8396C20.2848 25.8646 20.6368 24.9979 21.3139 24.3208L23.3452 22.2083C23.8868 21.6667 24.2931 21.1521 24.5639 20.6917C24.7806 20.3396 24.8618 20.0417 24.8618 19.7708C24.8618 19.5542 24.7806 19.2292 24.6452 18.9042C24.4556 18.4708 24.1577 17.9833 23.7785 17.4687L17.4952 8.58541C17.2243 8.20625 16.8993 7.93541 16.4931 7.74583C16.0598 7.55625 15.5993 7.44791 15.1389 7.44791ZM37.7806 40.6521L37.3473 42.4937L38.0785 40.5979C37.9431 40.5708 37.8348 40.5979 37.7806 40.6521Z" fill="#10054C"/>
</svg>
