<svg width="64" height="55" viewBox="0 0 64 55" fill="none" xmlns="http://www.w3.org/2000/svg">
<path fill-rule="evenodd" clip-rule="evenodd" d="M23.6842 0.0898039C21.5828 0.523264 19.5561 1.96244 18.4828 3.78321C18.2871 4.11518 17.8227 5.2806 17.4509 6.37312L16.7747 8.35941L11.4306 8.42874L6.08643 8.49808L5.19437 8.84196C2.75186 9.7835 1.13141 11.4373 0.302999 13.8339L0 14.7105V31.7789V48.8474L0.347059 49.7395C1.37315 52.3767 3.23613 54.0741 5.83451 54.7387C6.8344 54.9943 7.3925 55 31.6891 55C55.9858 55 56.5439 54.9943 57.5438 54.7387C59.0074 54.3642 60.0564 53.7651 61.1329 52.6885C62.2096 51.612 62.8087 50.563 63.1831 49.0993C63.4365 48.1086 63.4444 47.5764 63.4444 31.7128C63.4444 15.8492 63.4365 15.317 63.1831 14.3262C62.5071 11.6831 60.761 9.80587 58.0225 8.77792C57.3412 8.52203 56.9313 8.49874 51.9477 8.43152L46.6035 8.35941L45.9274 6.37312C45.1579 4.11254 44.8092 3.45547 43.8064 2.37632C43.0054 1.51443 42.0305 0.881173 40.7185 0.370706L39.8264 0.0236471L32.0199 0.00208017C27.7263 -0.00969575 23.9753 0.0297335 23.6842 0.0898039ZM39.3062 4.38616C40.1206 4.62909 40.8733 5.24091 41.2398 5.95752C41.3944 6.25973 41.8969 7.63102 42.3565 9.00484C42.8162 10.3787 43.288 11.6489 43.4051 11.8276C43.5222 12.0062 43.8664 12.2653 44.17 12.4032C44.6843 12.6367 45.1154 12.6541 50.4872 12.6567C57.0964 12.66 57.1079 12.6616 58.1582 13.7118C59.2881 14.8416 59.2104 13.5136 59.2104 31.7128C59.2104 49.912 59.2881 48.584 58.1582 49.7138C57.0107 50.8612 59.4082 50.766 31.6891 50.766C3.97007 50.766 6.3676 50.8612 5.22004 49.7138C4.09021 48.584 4.16788 49.912 4.16788 31.7128C4.16788 13.5136 4.09021 14.8416 5.22004 13.7118C6.27035 12.6616 6.28186 12.66 12.8911 12.6567C18.2254 12.6541 18.6967 12.6354 19.1981 12.4077C19.9292 12.0757 20.1453 11.6706 21.0399 8.95482C21.9514 6.18761 22.2578 5.54192 22.9189 4.99441C23.8563 4.21799 23.9349 4.21085 31.632 4.20079C37.4485 4.19312 38.7657 4.225 39.3062 4.38616ZM29.9029 14.8591C27.663 15.1983 25.9811 15.736 24.2063 16.6802C20.0803 18.875 17.1385 22.8075 16.1277 27.4787C15.7895 29.0412 15.7895 32.2673 16.1277 33.8298C17.3437 39.4498 21.3957 43.9862 26.7481 45.7199C28.5735 46.3111 29.5981 46.4658 31.6891 46.4658C32.7913 46.4658 34.0019 46.3877 34.5339 46.2822C40.9875 45.004 45.7612 40.3247 47.2596 33.8084C47.5669 32.4711 47.5652 28.8618 47.2565 27.5002C45.8071 21.1093 41.1676 16.473 34.8432 15.0956C33.901 14.8905 30.7057 14.7375 29.9029 14.8591ZM51.9927 17.0798C50.6578 17.6612 50.3425 19.4358 51.3883 20.4817C52.2466 21.3399 53.4721 21.3399 54.3304 20.4817C55.9726 18.8395 54.1251 16.151 51.9927 17.0798ZM34.5339 19.3798C38.8399 20.559 41.8614 23.614 43.0133 27.953C43.3758 29.3183 43.3555 32.0845 42.9727 33.499C41.8282 37.7279 38.7628 40.7933 34.5339 41.9379C33.1193 42.3206 30.3532 42.3409 28.9878 41.9785C23.8772 40.6217 20.4183 36.4824 20.084 31.3235C19.8714 28.0428 21.0989 24.8483 23.491 22.4561C25.2341 20.713 27.2163 19.6614 29.6383 19.1948C30.8796 18.9556 33.3219 19.048 34.5339 19.3798Z" fill="#10054D"/>
</svg>
