<svg width="75" height="75" viewBox="0 0 75 75" fill="none" xmlns="http://www.w3.org/2000/svg">
<path d="M45.3125 28.9062H6.25C4.96875 28.9062 3.90625 27.8437 3.90625 26.5625C3.90625 25.2813 4.96875 24.2188 6.25 24.2188H45.3125C46.5937 24.2188 47.6562 25.2813 47.6562 26.5625C47.6562 27.8437 46.5937 28.9062 45.3125 28.9062Z" fill="white"/>
<path d="M25 53.9062H18.75C17.4688 53.9062 16.4062 52.8437 16.4062 51.5625C16.4062 50.2813 17.4688 49.2188 18.75 49.2188H25C26.2812 49.2188 27.3438 50.2813 27.3438 51.5625C27.3438 52.8437 26.2812 53.9062 25 53.9062Z" fill="white"/>
<path d="M45.3125 53.9062H32.8125C31.5313 53.9062 30.4688 52.8437 30.4688 51.5625C30.4688 50.2813 31.5313 49.2188 32.8125 49.2188H45.3125C46.5937 49.2188 47.6562 50.2813 47.6562 51.5625C47.6562 52.8437 46.5937 53.9062 45.3125 53.9062Z" fill="white"/>
<path d="M54.875 66.4062H20.125C7.6875 66.4062 3.90625 62.6563 3.90625 50.3438V24.6562C3.90625 12.3437 7.6875 8.59375 20.125 8.59375H45.3125C46.5937 8.59375 47.6562 9.65625 47.6562 10.9375C47.6562 12.2187 46.5937 13.2812 45.3125 13.2812H20.125C10.3125 13.2812 8.59375 14.9687 8.59375 24.6562V50.3125C8.59375 60 10.3125 61.6875 20.125 61.6875H54.8437C64.6562 61.6875 66.375 60 66.375 50.3125V43.8125C66.375 42.5313 67.4375 41.4688 68.7187 41.4688C70 41.4688 71.0625 42.5313 71.0625 43.8125V50.3125C71.0937 62.6563 67.3125 66.4062 54.875 66.4062Z" fill="white"/>
<path d="M62.5 32.0313C61.2187 32.0313 60.1562 30.9688 60.1562 29.6876V10.9376C60.1562 10.0001 60.7187 9.12505 61.5937 8.7813C62.4687 8.43755 63.4688 8.62505 64.1563 9.2813L70.4063 15.5313C71.3125 16.4376 71.3125 17.9376 70.4063 18.8438C69.5 19.7501 68 19.7501 67.0937 18.8438L64.8437 16.5938V29.6876C64.8437 30.9688 63.7812 32.0313 62.5 32.0313Z" fill="white"/>
<path d="M56.25 19.5312C55.6563 19.5312 55.0625 19.3125 54.5938 18.8438C53.6875 17.9375 53.6875 16.4375 54.5938 15.5312L60.8437 9.28125C61.75 8.375 63.25 8.375 64.1563 9.28125C65.0625 10.1875 65.0625 11.6875 64.1563 12.5938L57.9063 18.8438C57.4375 19.3125 56.8438 19.5312 56.25 19.5312Z" fill="white"/>
</svg>
