<svg width="75" height="75" viewBox="0 0 75 75" fill="none" xmlns="http://www.w3.org/2000/svg">
<path d="M37.5 71.0938C18.9688 71.0938 3.90625 56.0312 3.90625 37.5C3.90625 18.9688 18.9688 3.90625 37.5 3.90625C56.0312 3.90625 71.0938 18.9688 71.0938 37.5C71.0938 56.0312 56.0312 71.0938 37.5 71.0938ZM37.5 8.59375C21.5625 8.59375 8.59375 21.5625 8.59375 37.5C8.59375 53.4375 21.5625 66.4062 37.5 66.4062C53.4375 66.4062 66.4062 53.4375 66.4062 37.5C66.4062 21.5625 53.4375 8.59375 37.5 8.59375Z" fill="white"/>
<path d="M49.0938 49.7813C48.6875 49.7813 48.2813 49.6875 47.9063 49.4375L38.2187 43.6563C35.8125 42.2188 34.0312 39.0625 34.0312 36.2812V23.4688C34.0312 22.1875 35.0938 21.125 36.375 21.125C37.6563 21.125 38.7188 22.1875 38.7188 23.4688V36.2812C38.7188 37.4062 39.6562 39.0625 40.625 39.625L50.3125 45.4062C51.4375 46.0625 51.7813 47.5 51.125 48.625C50.6563 49.375 49.875 49.7813 49.0938 49.7813Z" fill="white"/>
</svg>
