<svg width="56" height="60" viewBox="0 0 56 60" fill="none" xmlns="http://www.w3.org/2000/svg">
<path fill-rule="evenodd" clip-rule="evenodd" d="M10.1857 0.191926C7.59957 0.749607 5.40649 2.96522 4.85915 5.57311C4.73938 6.1438 4.68647 7.14963 4.68506 8.88218L4.68307 11.3713H2.34154H0V13.714V16.0567H2.34154H4.68307V21.9135V27.7702H2.34154H0V30.1129V32.4556H2.34154H4.68307V38.3124V44.1691H2.34154H0V46.5118V48.8545H2.34154H4.68307L4.68506 51.2265C4.68647 52.856 4.74102 53.8551 4.85915 54.4185C5.41246 57.0549 7.60905 59.2526 10.2442 59.8062C11.4748 60.0646 48.3514 60.0646 49.582 59.8062C52.2172 59.2526 54.4138 57.0549 54.9671 54.4185C55.226 53.1843 55.226 6.80725 54.9671 5.57311C54.4138 2.93664 52.2172 0.738947 49.582 0.185367C48.3857 -0.065888 11.3527 -0.0597969 10.1857 0.191926ZM49.3579 5.07342C49.61 5.24947 49.9479 5.58822 50.1089 5.82624L50.4015 6.25871V29.9958V53.7329L50.1089 54.1653C49.9479 54.4033 49.6099 54.7421 49.3578 54.9181L48.8996 55.2384H29.9131H10.9267L10.4684 54.9181C10.2164 54.7421 9.87835 54.4035 9.71737 54.1658C9.43217 53.7446 9.42374 53.6719 9.3871 51.3092L9.34952 48.8848L10.3441 48.8325C11.4958 48.7721 12.0686 48.4822 12.5421 47.7203C12.9356 47.0871 12.9356 45.9366 12.5421 45.3034C12.0699 44.5434 11.4951 44.2516 10.3524 44.1915L9.36614 44.1397V38.3124V32.485L10.3524 32.4332C11.4951 32.3732 12.0699 32.0814 12.5421 31.3214C12.9356 30.6882 12.9356 29.5377 12.5421 28.9044C12.0699 28.1445 11.4951 27.8527 10.3524 27.7926L9.36614 27.7408V21.9135V16.0861L10.3524 16.0343C11.1671 15.9915 11.4191 15.9293 11.8015 15.6761C12.5207 15.1999 12.8199 14.6233 12.8199 13.714C12.8199 12.8047 12.5207 12.2281 11.8015 11.7519C11.4191 11.4987 11.1671 11.4365 10.3524 11.3937L9.36614 11.3419L9.36684 9.04324C9.36719 7.77888 9.42093 6.55189 9.48626 6.31669C9.63085 5.79544 10.4313 4.96729 10.9315 4.82122C11.1471 4.75832 19.0349 4.72224 30.0988 4.73372L48.8996 4.75317L49.3579 5.07342ZM29.3863 15.933C25.5813 16.6445 22.7676 19.7875 22.5168 23.6065C22.3962 25.4432 22.9093 27.36 23.9004 28.7756C24.3396 29.4027 24.363 29.4722 24.1727 29.5824C22.5091 30.5456 20.6128 32.2006 19.5399 33.6254C18.0142 35.6515 17.0029 38.3782 16.7914 41.0358L16.7098 42.0607H19.0674H21.425V41.661C21.425 41.4412 21.5007 40.8746 21.5931 40.4018C22.3766 36.3917 25.2421 33.5248 29.2502 32.7408C33.6554 31.8791 38.3204 34.5775 39.8141 38.8512C40.0975 39.6625 40.3915 41.0927 40.3915 41.661V42.0607H42.7503H45.1091L45.0317 41.0531C44.8434 38.6024 44.0758 36.3774 42.6614 34.1824C41.6581 32.6258 39.3103 30.4606 37.789 29.6894L37.2241 29.403L37.5629 28.9087C39.667 25.8395 39.5655 22.0092 37.3009 19.0198C36.3156 17.7192 34.5908 16.5692 32.9504 16.1193C32.136 15.8959 30.1422 15.7917 29.3863 15.933ZM32.3619 20.9079C33.639 21.533 34.3504 22.6891 34.3504 24.139C34.3504 25.6009 33.6404 26.7432 32.332 27.386C31.7827 27.6559 31.5189 27.7111 30.7912 27.708C29.6773 27.7034 28.8924 27.3735 28.1784 26.6096C27.2164 25.5807 26.9286 24.1856 27.4118 22.8938C28.1623 20.8867 30.4465 19.9703 32.3619 20.9079Z" fill="#10054C"/>
</svg>
