<svg width="40" height="25" viewBox="0 0 40 25" fill="none" xmlns="http://www.w3.org/2000/svg">
<path fill-rule="evenodd" clip-rule="evenodd" d="M16.8257 9.95921L8.81383 19.9184L5.53094 16.5125C2.16384 13.0197 1.38752 12.752 0.17831 14.6684C-0.394717 15.5776 0.289494 16.5849 4.0612 20.3862C6.57962 22.9237 8.82897 25 9.05989 25C9.29147 25 13.6487 19.8493 18.7434 13.554C27.4711 2.76974 27.9388 2.04737 26.8415 1.05395C26.2007 0.47434 25.4882 0 25.2573 0C25.0263 0 21.2323 4.48158 16.8257 9.95921ZM28.7092 9.90789C21.2665 19.1592 20.648 19.7612 19.577 18.7921C18.5244 17.8395 18.327 17.8645 17.2191 19.0882C16.0369 20.3947 16.0579 20.4724 18.2283 22.7118C19.448 23.9704 20.6533 25 20.9059 25C21.5454 25 39.2671 2.81184 39.2671 2.01118C39.2671 1.6546 38.6875 1.05198 37.9796 0.673028C36.8349 0.060528 35.8079 1.08355 28.7092 9.90789Z" fill="white"/>
</svg>
