<svg width="49" height="45" viewBox="0 0 49 45" fill="none" xmlns="http://www.w3.org/2000/svg">
<path fill-rule="evenodd" clip-rule="evenodd" d="M23.581 0.115768C23.1717 0.305291 22.8047 0.695168 22.6491 1.10582C22.568 1.31988 22.5312 5.55857 22.5312 14.6963V27.9756L18.8568 24.3097C16.8359 22.2934 15.0423 20.5913 14.8713 20.527C14.0655 20.2244 13.1222 20.5593 12.7089 21.2947C12.4531 21.7499 12.4008 22.4884 12.5969 22.8763C12.7705 23.2194 23.1875 33.6527 23.5479 33.8442C23.9304 34.0474 24.6677 34.0477 25.0508 33.8447C25.2149 33.7577 27.7203 31.3085 30.6184 28.4021C36.3081 22.6959 36.1503 22.8877 35.9659 21.9052C35.8696 21.3912 35.2892 20.7985 34.7134 20.626C33.7489 20.337 33.6889 20.3816 29.688 24.3665L26.0702 27.9699L26.0412 14.5285C26.0124 1.1477 26.0113 1.08582 25.7844 0.782028C25.6591 0.614165 25.4265 0.379775 25.2677 0.261198C24.9015 -0.0122019 24.0214 -0.088122 23.581 0.115768ZM1.02775 28.5239C0.607592 28.7069 0.24689 29.1517 0.0875352 29.6835C0.00642139 29.9542 -0.0180015 31.317 0.0129411 33.8403C0.0584709 37.5543 0.0622283 37.605 0.36204 38.5889C1.12577 41.0956 2.73887 43.0114 5.01548 44.1159C6.99536 45.0765 5.29087 44.9985 24.2994 44.9985C43.3102 44.9985 41.6058 45.0766 43.5832 44.1146C45.9104 42.9825 47.6172 40.9032 48.3001 38.3679C48.5173 37.5617 48.542 37.1479 48.581 33.6713C48.6238 29.8654 48.6233 29.8578 48.3689 29.3679C48.0371 28.7287 47.6501 28.4587 46.9727 28.3936C46.2769 28.3267 45.646 28.652 45.3092 29.2513C45.0849 29.6503 45.075 29.8112 45.0732 33.0785C45.071 36.9031 44.994 37.5335 44.3897 38.6726C43.9317 39.5361 42.9868 40.4877 42.1993 40.8785C40.8455 41.5504 41.7697 41.5174 24.2994 41.5174C6.84441 41.5174 7.79722 41.5514 6.4195 40.8811C5.58173 40.4736 4.63013 39.5226 4.19251 38.6558C3.59985 37.4817 3.52769 36.8781 3.52548 33.0785C3.52371 29.8112 3.51377 29.6503 3.28954 29.2513C2.85955 28.4863 1.85568 28.1635 1.02775 28.5239Z" fill="#9791B7"/>
</svg>
