<svg width="26" height="26" viewBox="0 0 26 26" fill="none" xmlns="http://www.w3.org/2000/svg">
<path d="M22.5133 23.5854H3.21616C2.77661 23.5854 2.41211 23.2209 2.41211 22.7814C2.41211 22.3418 2.77661 21.9773 3.21616 21.9773H22.5133C22.9529 21.9773 23.3174 22.3418 23.3174 22.7814C23.3174 23.2209 22.9529 23.5854 22.5133 23.5854Z" fill="#7058EE"/>
<path d="M20.3907 3.73077C18.3109 1.65097 16.274 1.59737 14.1406 3.73077L12.8434 5.02797C12.7362 5.13518 12.6933 5.30671 12.7362 5.4568C13.5509 8.29777 15.8237 10.5705 18.6647 11.3853C18.7076 11.396 18.7504 11.4068 18.7933 11.4068C18.9112 11.4068 19.0185 11.3639 19.1042 11.2781L20.3907 9.98091C21.452 8.93029 21.9666 7.91182 21.9666 6.88264C21.9774 5.8213 21.4628 4.79212 20.3907 3.73077Z" fill="#7058EE"/>
<path d="M16.7344 12.3609C16.4235 12.2108 16.1234 12.0607 15.8339 11.8892C15.598 11.7498 15.3729 11.5997 15.1478 11.4389C14.9655 11.321 14.7511 11.1495 14.5474 10.9779C14.526 10.9672 14.4509 10.9029 14.3652 10.8171C14.0114 10.517 13.6147 10.131 13.2609 9.70218C13.2288 9.68074 13.1752 9.6057 13.1001 9.50921C12.9929 9.38057 12.8107 9.16615 12.6499 8.91958C12.5212 8.75877 12.3711 8.52291 12.2318 8.28706C12.0602 7.9976 11.9101 7.70815 11.7601 7.40797C11.7292 7.34192 11.6998 7.27632 11.6715 7.21126C11.5261 6.87699 11.0911 6.77976 10.8333 7.03752L4.65227 13.2186C4.51291 13.3579 4.38426 13.6259 4.3521 13.8082L3.77318 17.9142C3.66598 18.6432 3.86967 19.3293 4.31993 19.7903C4.70588 20.1655 5.24191 20.3692 5.82082 20.3692C5.94947 20.3692 6.07812 20.3585 6.20677 20.3371L10.3235 19.7581C10.5165 19.726 10.7845 19.5973 10.9131 19.458L17.087 13.2841C17.3466 13.0245 17.2485 12.5795 16.9105 12.4364C16.8527 12.4119 16.7941 12.3868 16.7344 12.3609Z" fill="#7058EE"/>
</svg>
