<svg width="60" height="60" viewBox="0 0 60 60" fill="none" xmlns="http://www.w3.org/2000/svg">
<path d="M29.9998 40.8251C24.0248 40.8251 19.1748 35.9751 19.1748 30C19.1748 24.025 24.0248 19.175 29.9998 19.175C35.9748 19.175 40.8248 24.025 40.8248 30C40.8248 35.9751 35.9748 40.8251 29.9998 40.8251ZM29.9998 22.925C26.0998 22.925 22.9248 26.1 22.9248 30C22.9248 33.9 26.0998 37.0751 29.9998 37.0751C33.8998 37.0751 37.0748 33.9 37.0748 30C37.0748 26.1 33.8998 22.925 29.9998 22.925Z" fill="#292D32"/>
<path d="M30.0002 52.55C20.6002 52.55 11.7252 47.05 5.6252 37.5C2.9752 33.375 2.9752 26.65 5.6252 22.5C11.7502 12.95 20.6252 7.44995 30.0002 7.44995C39.3752 7.44995 48.2502 12.95 54.3502 22.5C57.0002 26.625 57.0002 33.35 54.3502 37.5C48.2502 47.05 39.3752 52.55 30.0002 52.55ZM30.0002 11.2C21.9252 11.2 14.2002 16.05 8.8002 24.525C6.9252 27.45 6.9252 32.5499 8.8002 35.4749C14.2002 43.9499 21.9252 48.8 30.0002 48.8C38.0752 48.8 45.8002 43.9499 51.2002 35.4749C53.0752 32.5499 53.0752 27.45 51.2002 24.525C45.8002 16.05 38.0752 11.2 30.0002 11.2Z" fill="#292D32"/>
</svg>
