<svg width="41" height="41" viewBox="0 0 41 41" fill="none" xmlns="http://www.w3.org/2000/svg">
<path fill-rule="evenodd" clip-rule="evenodd" d="M1.11341 0.0902281C0.959702 0.139182 0.688648 0.324742 0.51107 0.502611C-0.009411 1.02412 -0.141173 1.72486 0.156473 2.38842C0.392844 2.91522 37.9733 40.5172 38.5544 40.8083C39.6966 41.3806 41.0084 40.5366 41 39.2348C40.9956 38.5712 40.932 38.5008 34.6317 32.1935L28.5894 26.1443L31.2011 22.4187C32.6375 20.3696 33.8862 18.5308 33.9758 18.3325C34.1671 17.9096 34.1943 17.2345 34.0386 16.7769C33.9059 16.3869 33.3843 15.8113 32.9554 15.5816C32.6347 15.4099 32.5822 15.4079 27.7254 15.3857C23.6649 15.3672 22.8193 15.3446 22.8193 15.2549C22.8193 15.1952 23.164 12.2488 23.5853 8.70733C24.0449 4.84357 24.335 2.11825 24.3106 1.89311C24.2352 1.1967 23.7901 0.538666 23.1929 0.240295C22.4229 -0.144366 21.476 -0.0418115 20.8548 0.493477C20.6575 0.663494 19.2133 2.73503 17.0538 5.94548L13.5711 11.1232L8.16289 5.71793C4.00818 1.5655 2.67109 0.275067 2.39419 0.150479C2.0001 -0.0268288 1.54763 -0.048141 1.11341 0.0902281ZM8.59334 18.5128C7.75519 19.7576 7.01804 20.9024 6.95524 21.0566C6.89237 21.2109 6.84415 21.5534 6.84799 21.8178C6.85672 22.4173 7.09534 22.9464 7.53708 23.3455C8.1717 23.919 7.99548 23.8983 12.4666 23.9244C14.8713 23.9385 16.4915 23.9779 16.4915 24.0223C16.4915 24.0632 16.1491 27.3303 15.7306 31.2826C15.3121 35.2349 14.97 38.6701 14.9705 38.9164C14.9728 40.2632 16.3201 41.2873 17.6157 40.9272C18.3846 40.7135 18.4382 40.6488 21.6951 35.9927C23.3879 33.5726 24.8457 31.4922 24.9346 31.3695L25.0963 31.1464L17.6503 23.6979C13.5549 19.6012 10.1846 16.2494 10.1606 16.2494C10.1368 16.2494 9.43141 17.2679 8.59334 18.5128Z" fill="white"/>
</svg>
