<svg width="60" height="60" viewBox="0 0 60 60" fill="none" xmlns="http://www.w3.org/2000/svg">
<path d="M30 5C23.45 5 18.125 10.325 18.125 16.875C18.125 23.3 23.15 28.5 29.7 28.725C29.9 28.7 30.1 28.7 30.25 28.725C30.3 28.725 30.325 28.725 30.375 28.725C30.4 28.725 30.4 28.725 30.425 28.725C36.825 28.5 41.85 23.3 41.875 16.875C41.875 10.325 36.55 5 30 5Z" fill="#7058EE"/>
<path d="M42.7004 35.375C35.7254 30.725 24.3504 30.725 17.3254 35.375C14.1504 37.5 12.4004 40.3749 12.4004 43.4499C12.4004 46.525 14.1504 49.375 17.3004 51.475C20.8004 53.825 25.4004 55 30.0004 55C34.6004 55 39.2004 53.825 42.7004 51.475C45.8504 49.35 47.6004 46.5 47.6004 43.4C47.5754 40.325 45.8504 37.475 42.7004 35.375Z" fill="#7058EE"/>
</svg>
