<svg width="60" height="60" viewBox="0 0 60 60" fill="none" xmlns="http://www.w3.org/2000/svg">
<path d="M30.3994 29.05C30.3244 29.05 30.2744 29.05 30.1994 29.05C30.0744 29.025 29.8994 29.025 29.7494 29.05C22.4994 28.825 17.0244 23.125 17.0244 16.1C17.0244 8.95 22.8494 3.125 29.9994 3.125C37.1494 3.125 42.9744 8.95 42.9744 16.1C42.9494 23.125 37.4494 28.825 30.4744 29.05C30.4494 29.05 30.4244 29.05 30.3994 29.05ZM29.9994 6.875C24.9244 6.875 20.7744 11.025 20.7744 16.1C20.7744 21.1 24.6744 25.125 29.6494 25.3C29.7744 25.275 30.1244 25.275 30.4494 25.3C35.3494 25.075 39.1994 21.05 39.2244 16.1C39.2244 11.025 35.0744 6.875 29.9994 6.875Z" fill="#9791B7"/>
<path d="M30.424 56.375C25.524 56.375 20.599 55.125 16.874 52.625C13.399 50.325 11.499 47.175 11.499 43.75C11.499 40.325 13.399 37.15 16.874 34.825C24.374 29.85 36.524 29.85 43.974 34.825C47.424 37.125 49.349 40.275 49.349 43.7C49.349 47.125 47.449 50.3 43.974 52.625C40.224 55.125 35.324 56.375 30.424 56.375ZM18.949 37.975C16.549 39.575 15.249 41.625 15.249 43.775C15.249 45.9 16.574 47.95 18.949 49.525C25.174 53.7 35.674 53.7 41.899 49.525C44.299 47.925 45.599 45.875 45.599 43.725C45.599 41.6 44.274 39.55 41.899 37.975C35.674 33.825 25.174 33.825 18.949 37.975Z" fill="#9791B7"/>
</svg>
