<svg width="60" height="60" viewBox="0 0 60 60" fill="none" xmlns="http://www.w3.org/2000/svg">
<path fill-rule="evenodd" clip-rule="evenodd" d="M30.1774 0.0351886C27.493 0.324596 24.8646 1.28921 22.5373 2.83932C18.8895 5.2689 16.3286 9.07658 15.3765 13.4865C15.0807 14.8563 15.0831 18.7316 15.3807 20.1113C16.8446 26.9003 22.0013 31.9862 28.7974 33.3438C30.2324 33.6304 33.5284 33.6293 34.9697 33.3415C41.9818 31.9417 47.2087 26.6045 48.4802 19.5458C48.7175 18.2283 48.7175 15.3488 48.4802 14.0313C47.512 8.65642 44.0688 4.02474 39.3226 1.71265C37.9655 1.05163 36.4095 0.523006 35.0215 0.25154C34.0716 0.0656772 31.1178 -0.0662446 30.1774 0.0351886ZM33.9361 3.65231C36.8418 4.12371 39.3571 5.43319 41.4157 7.54628C45.3694 11.6048 46.3048 17.7135 43.7466 22.769C42.4343 25.3623 40.3766 27.4101 37.7984 28.6882C33.4899 30.8242 28.5314 30.5115 24.491 27.8489C23.5403 27.2224 21.9602 25.7176 21.1925 24.7076C20.3856 23.646 19.394 21.5873 19.0161 20.1892C18.724 19.1083 18.6992 18.8423 18.6992 16.7885C18.6992 14.7492 18.7254 14.4641 19.0076 13.4224C19.6128 11.1886 20.7075 9.27159 22.352 7.56528C25.3677 4.43645 29.7157 2.96772 33.9361 3.65231ZM4.84636 5.75485C4.36436 5.96475 3.88201 6.56139 3.78762 7.06421C3.68656 7.60339 4.00605 8.4457 4.42509 8.74402C4.5992 8.86808 5.65559 9.42274 6.77248 9.97681C8.99922 11.0812 9.44768 11.1837 10.1587 10.75C10.7565 10.3855 11.0285 9.85943 10.9775 9.1664C10.9045 8.17341 10.7369 8.02953 8.16173 6.74948C6.8787 6.11168 5.6883 5.59197 5.51642 5.59443C5.34454 5.59701 5.0431 5.66913 4.84636 5.75485ZM55.7957 6.64499C54.6027 7.23682 53.5029 7.83522 53.3517 7.97465C52.1629 9.07118 52.8782 10.9821 54.4778 10.9835C55.1842 10.9842 59.2823 8.94125 59.6717 8.39445C60.0671 7.83921 60.1065 7.039 59.7632 6.53875C59.3839 5.98597 58.9634 5.70067 58.4235 5.62949C58.0209 5.57637 57.699 5.70079 55.7957 6.64499ZM31.2267 7.62485C30.7181 7.85527 30.2482 8.46258 30.162 9.00118C30.1024 9.37478 30.0298 9.47644 29.7811 9.53473C29.1361 9.68588 28.0906 10.3443 27.5415 10.9454C25.3981 13.2908 26.362 17.1183 29.3822 18.2554C29.9114 18.4546 30.419 18.5251 31.696 18.5767C33.1996 18.6374 33.3535 18.6645 33.6012 18.9123C33.9667 19.2778 33.9609 19.8952 33.588 20.3292L33.3053 20.6582L31.331 20.7169C30.0743 20.7542 29.264 20.8285 29.102 20.9214C28.4345 21.3035 28.1127 22.1654 28.3464 22.9454C28.5098 23.4908 29.1521 24.0795 29.6949 24.1813C30.0369 24.2456 30.1079 24.3158 30.1711 24.6527C30.3092 25.3891 31.1628 26.111 31.8953 26.111C32.0382 26.111 32.3732 26.0055 32.6396 25.8765C33.1631 25.623 33.6362 24.9424 33.6362 24.4426C33.6362 24.2049 33.7231 24.1291 34.1344 24.0087C35.3046 23.6659 36.4542 22.6432 37.0152 21.446C37.2904 20.8589 37.3294 20.6298 37.3294 19.6029C37.3294 18.576 37.2904 18.3469 37.0152 17.7597C36.5766 16.8237 35.753 15.9847 34.8237 15.5269C34.0921 15.1666 33.9637 15.1432 32.3493 15.0771C31.4127 15.0387 30.5571 14.9684 30.4482 14.9206C29.9747 14.7134 29.7411 13.9333 30.005 13.4401C30.2604 12.9628 30.7119 12.8602 32.5577 12.8602C34.179 12.8602 34.3336 12.841 34.7033 12.594C35.4264 12.1109 35.7131 11.1265 35.3404 10.4058C35.0946 9.93037 34.5407 9.50142 34.0548 9.41019C33.7185 9.3471 33.6362 9.2785 33.6362 9.06121C33.6362 8.73393 33.2203 8.09813 32.8052 7.79078C32.4099 7.49785 31.6773 7.42093 31.2267 7.62485ZM6.52474 23.7364C4.35416 24.8352 4.25544 24.9004 3.99492 25.4074C3.55489 26.2638 3.7684 27.0627 4.60424 27.6868C5.25004 28.169 5.78515 28.0422 8.22387 26.8287C10.6866 25.6033 10.9038 25.4134 10.9768 24.4215C11.0286 23.7168 10.7603 23.1938 10.1587 22.827C9.42212 22.3779 9.00015 22.4835 6.52474 23.7364ZM53.556 22.8593C53.0042 23.228 52.7232 23.8119 52.7798 24.4727C52.8595 25.4054 53.0464 25.5616 55.6125 26.8383C57.6883 27.871 58.0187 28.0014 58.4235 27.9478C58.9635 27.8764 59.384 27.591 59.7632 27.0383C59.9809 26.7211 60.027 26.5268 59.987 26.0967C59.8993 25.1537 59.6421 24.9339 57.1887 23.7062C54.7067 22.4641 54.2921 22.3675 53.556 22.8593ZM47.232 36.0635C46.1402 36.3029 44.7632 36.8904 43.8747 37.496C43.5635 37.708 42.6165 38.5603 41.7701 39.3898L40.2311 40.8981L39.9194 40.3661C39.1506 39.0539 37.5743 37.9889 36.011 37.7252C35.4396 37.6288 33.2018 37.6019 28.3525 37.6331C20.8189 37.6817 21.0451 37.6613 19.4546 38.4384C18.2823 39.0112 16.9373 40.4141 16.2647 41.7657C15.9758 42.3462 15.7082 42.9416 15.6698 43.0889C15.6017 43.3504 15.5695 43.3559 14.2712 43.3235L12.9422 43.2901L12.8819 41.9416C12.8152 40.4506 12.723 40.2086 12.0629 39.7949C11.6564 39.5402 11.6034 39.5377 6.41429 39.5377C1.3067 39.5377 1.16811 39.5437 0.852367 39.7795C0.674271 39.9125 0.419846 40.1669 0.286889 40.3451C0.0482933 40.6645 0.0446586 40.7869 0.0137056 49.6314C-0.0172474 58.4412 -0.01373 58.602 0.220411 59.0611C0.374472 59.363 0.622096 59.6114 0.921425 59.7642C1.36403 59.99 1.60403 60.0002 6.45966 60C12.1184 59.9999 12.0735 60.0057 12.6174 59.1913C12.8532 58.8384 12.8836 58.6481 12.8836 57.5239V56.2547L25.7513 56.2175C40.1995 56.1758 39.0675 56.2456 40.964 55.2808C41.864 54.823 42.1901 54.516 49.0176 47.6984C56.9012 39.8261 56.5165 40.2898 56.0896 39.1718C55.7033 38.1601 53.3486 36.6209 51.4576 36.1439C50.2469 35.8384 48.4176 35.8037 47.232 36.0635ZM50.2851 39.4863C50.5753 39.5518 51.0411 39.6912 51.3204 39.7962L51.8281 39.9872L45.9295 45.8874C39.675 52.1438 39.4755 52.3152 38.1151 52.5998C37.683 52.6902 33.7446 52.7299 25.1887 52.7299H12.8836V49.8087V46.8876L15.2578 46.8478C17.3922 46.812 17.6731 46.7839 18.0383 46.5694C18.5963 46.2416 18.8667 45.7237 18.9891 44.7483C19.1822 43.2102 19.8703 42.211 21.181 41.5654L21.9648 41.1794L28.5592 41.1447C33.0498 41.121 35.3047 41.1506 35.6275 41.2376C37.6773 41.7895 37.6291 44.6332 35.5617 45.1128C35.3087 45.1714 33.5399 45.2207 31.631 45.2222C28.2266 45.225 28.1529 45.23 27.7737 45.4888C26.6579 46.2506 26.7238 47.7548 27.9034 48.4498C28.2713 48.6666 28.5499 48.6871 31.5843 48.7209C35.5392 48.765 36.4109 48.6723 37.6225 48.0797C38.4296 47.6848 38.8052 47.3489 42.1951 43.9892C46.102 40.1171 46.3962 39.8836 47.7963 39.5442C48.6064 39.3477 49.5704 39.3253 50.2851 39.4863ZM9.3662 49.7397V56.4823H6.43504H3.50389V49.7397V42.997H6.43504H9.3662V49.7397Z" fill="#9791B7"/>
</svg>
