<svg width="35" height="35" viewBox="0 0 35 35" fill="none" xmlns="http://www.w3.org/2000/svg">
<path d="M17.4992 20.6646C14.393 20.6646 11.8555 18.1417 11.8555 15.0208C11.8555 11.9 14.393 9.39166 17.4992 9.39166C20.6055 9.39166 23.143 11.9146 23.143 15.0354C23.143 18.1562 20.6055 20.6646 17.4992 20.6646ZM17.4992 11.5792C15.6034 11.5792 14.043 13.125 14.043 15.0354C14.043 16.9458 15.5888 18.4917 17.4992 18.4917C19.4096 18.4917 20.9555 16.9458 20.9555 15.0354C20.9555 13.125 19.3951 11.5792 17.4992 11.5792Z" fill="#9791B7"/>
<path d="M17.5004 33.1917C15.3421 33.1917 13.1692 32.375 11.4775 30.7563C7.17544 26.6146 2.42127 20.0084 4.21502 12.1479C5.83377 5.01669 12.0609 1.82294 17.5004 1.82294C17.5004 1.82294 17.5004 1.82294 17.515 1.82294C22.9546 1.82294 29.1817 5.01669 30.8004 12.1625C32.5796 20.0229 27.8254 26.6146 23.5234 30.7563C21.8317 32.375 19.6588 33.1917 17.5004 33.1917ZM17.5004 4.01044C13.2567 4.01044 7.80252 6.27085 6.35877 12.6292C4.78377 19.4979 9.10044 25.4188 13.0088 29.1667C15.5317 31.6021 19.4838 31.6021 22.0067 29.1667C25.9004 25.4188 30.2171 19.4979 28.6713 12.6292C27.2129 6.27085 21.7442 4.01044 17.5004 4.01044Z" fill="#9791B7"/>
</svg>
