<svg width="60" height="60" viewBox="0 0 60 60" fill="none" xmlns="http://www.w3.org/2000/svg">
<path d="M43.6002 38.4251C43.1252 38.4251 42.6502 38.2501 42.2752 37.8751C41.5502 37.1501 41.5502 35.9501 42.2752 35.2251L47.3502 30.1501L42.2752 25.0751C41.5502 24.3501 41.5502 23.1501 42.2752 22.4251C43.0002 21.7001 44.2002 21.7001 44.9252 22.4251L51.3252 28.8251C52.0502 29.5501 52.0502 30.7501 51.3252 31.4751L44.9252 37.8751C44.5502 38.2501 44.0752 38.4251 43.6002 38.4251Z" fill="white"/>
<path d="M49.8254 32.0249H24.4004C23.3754 32.0249 22.5254 31.1749 22.5254 30.1499C22.5254 29.1249 23.3754 28.2749 24.4004 28.2749H49.8254C50.8504 28.2749 51.7004 29.1249 51.7004 30.1499C51.7004 31.1749 50.8504 32.0249 49.8254 32.0249Z" fill="white"/>
<path d="M29.4004 51.875C16.5254 51.875 7.52539 42.875 7.52539 30C7.52539 17.125 16.5254 8.125 29.4004 8.125C30.4254 8.125 31.2754 8.975 31.2754 10C31.2754 11.025 30.4254 11.875 29.4004 11.875C18.7254 11.875 11.2754 19.325 11.2754 30C11.2754 40.675 18.7254 48.125 29.4004 48.125C30.4254 48.125 31.2754 48.975 31.2754 50C31.2754 51.025 30.4254 51.875 29.4004 51.875Z" fill="white"/>
</svg>
