<svg width="60" height="60" viewBox="0 0 60 60" fill="none" xmlns="http://www.w3.org/2000/svg">
<path d="M38.975 31V41.175C38.975 42.075 38.875 42.925 38.65 43.7C37.725 47.375 34.675 49.675 30.475 49.675H23.675L16.125 54.7C15 55.475 13.5 54.65 13.5 53.3V49.675C10.95 49.675 8.825 48.825 7.35 47.35C5.85 45.85 5 43.725 5 41.175V31C5 26.25 7.95 22.975 12.5 22.55C12.825 22.525 13.15 22.5 13.5 22.5H30.475C35.575 22.5 38.975 25.9 38.975 31Z" fill="#7058EE"/>
<path d="M44.375 39C47.55 39 50.225 37.95 52.075 36.075C53.95 34.225 55 31.55 55 28.375V15.625C55 9.75 50.25 5 44.375 5H23.125C17.25 5 12.5 9.75 12.5 15.625V17.5C12.5 18.2 13.05 18.75 13.75 18.75H30.475C37.25 18.75 42.725 24.225 42.725 31V37.75C42.725 38.45 43.275 39 43.975 39H44.375V39Z" fill="#7058EE"/>
</svg>
