<svg width="60" height="60" viewBox="0 0 60 60" fill="none" xmlns="http://www.w3.org/2000/svg">
<path d="M20 55.7997C19.3 55.7997 18.575 55.6248 17.925 55.2748C16.5 54.5248 15.625 53.0247 15.625 51.4247V47.8749C8.075 47.0999 3.125 41.5497 3.125 33.5997V18.5999C3.125 9.99985 8.9 4.22485 17.5 4.22485H42.5C51.1 4.22485 56.875 9.99985 56.875 18.5999V33.5997C56.875 42.1997 51.1 47.9747 42.5 47.9747H33.075L22.4249 55.0749C21.6999 55.5499 20.85 55.7997 20 55.7997ZM17.5 7.94983C11.05 7.94983 6.875 12.1248 6.875 18.5748V33.575C6.875 40.025 11.05 44.2 17.5 44.2C18.525 44.2 19.375 45.05 19.375 46.075V51.4C19.375 51.725 19.575 51.8749 19.7 51.9499C19.825 52.0249 20.075 52.0999 20.35 51.9249L31.4751 44.525C31.7751 44.325 32.15 44.2 32.525 44.2H42.525C48.975 44.2 53.15 40.025 53.15 33.575V18.5748C53.15 12.1248 48.975 7.94983 42.525 7.94983H17.5V7.94983Z" fill="white"/>
<path d="M29.9995 30.2749C28.9745 30.2749 28.1245 29.4249 28.1245 28.3999V27.875C28.1245 24.975 30.2495 23.55 31.0495 23C31.9745 22.375 32.2745 21.95 32.2745 21.3C32.2745 20.05 31.2495 19.0249 29.9995 19.0249C28.7495 19.0249 27.7246 20.05 27.7246 21.3C27.7246 22.325 26.8746 23.175 25.8496 23.175C24.8246 23.175 23.9746 22.325 23.9746 21.3C23.9746 17.975 26.6745 15.2749 29.9995 15.2749C33.3245 15.2749 36.0245 17.975 36.0245 21.3C36.0245 24.15 33.9246 25.5749 33.1496 26.0999C32.1746 26.7499 31.8745 27.175 31.8745 27.875V28.3999C31.8745 29.4499 31.0245 30.2749 29.9995 30.2749Z" fill="white"/>
<path d="M30 36.5C28.95 36.5 28.125 35.65 28.125 34.625C28.125 33.6 28.975 32.75 30 32.75C31.025 32.75 31.875 33.6 31.875 34.625C31.875 35.65 31.05 36.5 30 36.5Z" fill="white"/>
</svg>
