<svg width="70" height="70" viewBox="0 0 70 70" fill="none" xmlns="http://www.w3.org/2000/svg">
<path d="M35.0007 47.3958C27.359 47.3958 21.1465 41.1833 21.1465 33.5416V17.4999C21.1465 9.85825 27.359 3.64575 35.0007 3.64575C42.6423 3.64575 48.8548 9.85825 48.8548 17.4999V33.5416C48.8548 41.1833 42.6423 47.3958 35.0007 47.3958ZM35.0007 8.02075C29.7798 8.02075 25.5215 12.2791 25.5215 17.4999V33.5416C25.5215 38.7624 29.7798 43.0208 35.0007 43.0208C40.2215 43.0208 44.4798 38.7624 44.4798 33.5416V17.4999C44.4798 12.2791 40.2215 8.02075 35.0007 8.02075Z" fill="#10054D"/>
<path d="M35 57.6041C21.4958 57.6041 10.5 46.6083 10.5 33.1041V28.1458C10.5 26.9499 11.4917 25.9583 12.6875 25.9583C13.8833 25.9583 14.875 26.9499 14.875 28.1458V33.1041C14.875 44.1874 23.9167 53.2291 35 53.2291C46.0833 53.2291 55.125 44.1874 55.125 33.1041V28.1458C55.125 26.9499 56.1167 25.9583 57.3125 25.9583C58.5083 25.9583 59.5 26.9499 59.5 28.1458V33.1041C59.5 46.6083 48.5042 57.6041 35 57.6041Z" fill="#10054D"/>
<path d="M39.0536 20.9418C38.8203 20.9418 38.5578 20.9126 38.2953 20.8251C36.1661 20.0376 33.8328 20.0376 31.7036 20.8251C30.5661 21.2334 29.312 20.6501 28.9036 19.5126C28.4953 18.3751 29.0786 17.1209 30.2161 16.7126C33.3078 15.6043 36.7203 15.6043 39.812 16.7126C40.9495 17.1209 41.5328 18.3751 41.1245 19.5126C40.7745 20.3876 39.9286 20.9418 39.0536 20.9418Z" fill="#10054D"/>
<path d="M37.3327 27.1251C37.1286 27.1251 36.9536 27.0959 36.7494 27.0376C35.5827 26.7168 34.3869 26.7168 33.2202 27.0376C32.0536 27.3584 30.8577 26.6584 30.5369 25.4918C30.2161 24.3543 30.9161 23.1584 32.0827 22.8376C33.9786 22.3126 36.0202 22.3126 37.9161 22.8376C39.0827 23.1584 39.7827 24.3543 39.4619 25.5209C39.1994 26.4834 38.2952 27.1251 37.3327 27.1251Z" fill="#10054D"/>
<path d="M35 66.3542C33.8042 66.3542 32.8125 65.3626 32.8125 64.1667V55.4167C32.8125 54.2209 33.8042 53.2292 35 53.2292C36.1958 53.2292 37.1875 54.2209 37.1875 55.4167V64.1667C37.1875 65.3626 36.1958 66.3542 35 66.3542Z" fill="#10054D"/>
</svg>
