<svg width="60" height="60" viewBox="0 0 60 60" fill="none" xmlns="http://www.w3.org/2000/svg">
<path d="M30.0497 51.3251C24.2247 51.3251 18.3997 50.4 12.8747 48.55C10.7747 47.825 9.17467 46.35 8.47467 44.425C7.74967 42.5 7.99967 40.375 9.14967 38.475L12.0247 33.7C12.6247 32.7 13.1747 30.7 13.1747 29.525V22.3C13.1747 13 20.7497 5.42505 30.0497 5.42505C39.3497 5.42505 46.9247 13 46.9247 22.3V29.525C46.9247 30.675 47.4747 32.7 48.0747 33.725L50.9247 38.475C51.9997 40.275 52.1997 42.45 51.4747 44.425C50.7497 46.4 49.1747 47.9 47.1997 48.55C41.6997 50.4 35.8747 51.3251 30.0497 51.3251ZM30.0497 9.17505C22.8247 9.17505 16.9247 15.05 16.9247 22.3V29.525C16.9247 31.35 16.1747 34.05 15.2497 35.625L12.3747 40.4C11.8247 41.325 11.6747 42.3 11.9997 43.125C12.2997 43.975 13.0497 44.625 14.0747 44.975C24.5247 48.475 35.5997 48.475 46.0497 44.975C46.9497 44.675 47.6497 44 47.9747 43.1C48.2997 42.2 48.2247 41.225 47.7247 40.4L44.8497 35.625C43.8997 34 43.1747 31.325 43.1747 29.5V22.3C43.1747 15.05 37.2997 9.17505 30.0497 9.17505Z" fill="white"/>
<path d="M34.6996 9.84995C34.5246 9.84995 34.3496 9.82495 34.1746 9.77495C33.4496 9.57495 32.7496 9.42495 32.0746 9.32495C29.9496 9.04995 27.8996 9.19995 25.9746 9.77495C25.2746 9.99995 24.5246 9.77495 24.0496 9.24995C23.5746 8.72495 23.4246 7.97495 23.6996 7.29995C24.7246 4.67495 27.2246 2.94995 30.0746 2.94995C32.9246 2.94995 35.4246 4.64995 36.4496 7.29995C36.6996 7.97495 36.5746 8.72495 36.0996 9.24995C35.7246 9.64995 35.1996 9.84995 34.6996 9.84995Z" fill="white"/>
<path d="M30.0498 57.025C27.5748 57.025 25.1748 56.025 23.4248 54.275C21.6748 52.525 20.6748 50.125 20.6748 47.65H24.4248C24.4248 49.125 25.0248 50.575 26.0748 51.625C27.1248 52.675 28.5748 53.275 30.0498 53.275C33.1498 53.275 35.6748 50.75 35.6748 47.65H39.4248C39.4248 52.825 35.2248 57.025 30.0498 57.025Z" fill="white"/>
</svg>
