<svg width="64" height="50" viewBox="0 0 64 50" fill="none" xmlns="http://www.w3.org/2000/svg">
<path d="M13.2966 19.2476L13.2966 19.2476C13.8909 20.8037 15.6912 21.4911 17.1542 20.7313L17.1542 20.7313C17.7467 20.4236 18.1081 20.1239 18.3386 19.7817C18.5678 19.4414 18.7004 19.01 18.7455 18.3781L18.7455 18.378C18.81 17.4733 18.5325 16.7239 18.0418 16.2022C17.5507 15.6801 16.8132 15.3512 15.8936 15.3512C15.3114 15.3512 14.8761 15.4819 14.494 15.7419L13.2966 19.2476ZM13.2966 19.2476C13.0161 18.5133 12.9962 17.8711 13.1846 17.3129M13.2966 19.2476L13.1846 17.3129M34.497 13.8439C36.3064 14.8417 37.172 17.0644 36.7523 19.2893C36.7523 19.2893 36.7523 19.2894 36.7523 19.2894L34.497 13.8439ZM34.497 13.8439C33.947 13.5406 33.2235 13.3366 32.5181 13.239C31.8141 13.1415 31.0709 13.142 30.479 13.2911L34.497 13.8439ZM13.1846 17.3129C13.374 16.7517 13.7934 16.2188 14.4939 15.742L13.1846 17.3129ZM58.2042 8.58372L58.2041 8.58372C57.3859 8.63923 56.5528 8.27398 55.9432 7.6679C55.3323 7.06049 55.0013 6.26837 55.0939 5.52493L55.1932 4.72944L55.2633 4.16752H54.697H31.8512H9.00556H8.45552L8.50783 4.71507L8.58526 5.52563C8.58526 5.52567 8.58526 5.5257 8.58527 5.52573C8.67322 6.44881 8.25876 7.37315 7.42679 8.00783C7.12048 8.2415 6.92057 8.3552 6.71357 8.42074C6.50133 8.48794 6.24309 8.51681 5.79876 8.51681H4.6688H4.16883L4.1688 9.01677L4.16816 18.1927L4.16752 27.3686L4.16749 27.8687H4.66752H5.75633C7.49843 27.8687 8.75063 29.2425 8.57129 30.8341L8.46606 31.768L8.40342 32.324H8.96292H31.8597H54.7566H55.3593L55.248 31.7318L55.1112 31.0031C54.9612 30.2033 55.2572 29.335 56.0455 28.571L55.6976 28.212L56.0456 28.571C56.3651 28.2613 56.5282 28.1416 56.7225 28.0678C56.937 27.9863 57.2296 27.9453 57.8492 27.9058L59.2289 27.818L59.7 27.788L59.6971 27.316L59.642 18.1689L59.5866 9.02205L59.5834 8.49028L59.0528 8.52623L58.2042 8.58372ZM29.6424 9.94159L29.6424 9.94158C32.6739 9.12627 35.8401 10.0269 38.0165 12.3281L38.3798 11.9845L38.0165 12.3281C39.1575 13.5345 39.7222 14.5557 40.1459 16.1823C40.3346 16.9068 40.4375 17.8815 40.4437 18.7171C40.4469 19.134 40.4257 19.4993 40.3844 19.7698C40.3636 19.906 40.3398 20.004 40.3177 20.067C40.3129 20.0809 40.3087 20.0914 40.3054 20.099C40.2234 20.1764 40.1554 20.2713 40.1051 20.3475C40.0397 20.4464 39.9726 20.5634 39.9073 20.6882C39.7766 20.9381 39.641 21.2428 39.5294 21.5464L39.5294 21.5465C39.1788 22.5012 38.4759 23.4954 37.5732 24.3523C36.6718 25.2078 35.5989 25.9001 34.5381 26.273C33.8199 26.5254 32.8549 26.6597 31.8628 26.6597C30.8712 26.6597 29.8962 26.5256 29.1592 26.2721C26.7643 25.4481 24.8623 23.5711 23.9998 21.179C23.908 20.9242 23.79 20.6764 23.6692 20.4778C23.6091 20.379 23.5424 20.2827 23.4714 20.2008C23.4336 20.1573 23.3735 20.0925 23.2926 20.0359C23.285 20.0101 23.2759 19.9742 23.2667 19.9263C23.2311 19.7429 23.2083 19.4699 23.2052 19.1271C23.1991 18.4465 23.2712 17.5647 23.4247 16.7312C24.0353 13.4182 26.4326 10.8046 29.6424 9.94159ZM40.2977 20.115C40.2977 20.115 40.298 20.1144 40.2986 20.1134L40.2977 20.115ZM23.3096 20.084C23.3095 20.0837 23.3094 20.0835 23.3092 20.0832C23.3148 20.0925 23.3145 20.0944 23.3096 20.084ZM45.1963 19.4746L45.1963 19.4746C44.8418 18.7798 44.7818 18.0913 44.9653 17.467C45.1499 16.8391 45.5936 16.235 46.318 15.7419C47.5028 14.9354 49.2217 15.3166 50.2535 16.8347L50.2535 16.8347C50.795 17.6311 50.733 19.0034 50.031 19.9239C48.7448 21.6101 46.166 21.3754 45.1963 19.4746ZM57.3589 39.78V39.1132H59.0866H60.8143V44.3067V49.3587L57.4583 48.5146C47.2625 45.9497 34.2109 44.1451 19.1254 43.2079C15.0481 42.9546 4.8265 42.5751 1.96318 42.5713L0.5 42.5692V40.8067V39.0559L6.30079 39.1833C21.2933 39.5125 37.4742 41.0513 49.0423 43.2451L49.0423 43.2451C49.808 43.3903 50.53 43.5224 51.0769 43.6184C51.3501 43.6663 51.5812 43.7055 51.7528 43.7329C51.8383 43.7465 51.9113 43.7575 51.9685 43.7653C52.0104 43.7711 52.0815 43.7807 52.1377 43.7807C52.2588 43.7807 52.355 43.7421 52.4102 43.7152C52.4705 43.6859 52.5224 43.6504 52.5638 43.6187C52.6464 43.5552 52.7258 43.4761 52.7972 43.396C52.9421 43.2337 53.0952 43.0212 53.2292 42.7941C53.7575 41.899 54.5624 41.4485 55.7454 41.4478H55.7455L56.8593 41.4469L57.3589 41.4465V40.9469V39.78ZM0.5 18.1397V0.5H31.824H63.1481V18.1397V35.7794H31.824H0.5V18.1397Z" fill="#10054C" stroke="black"/>
</svg>
