<svg width="85" height="90" viewBox="0 0 85 90" fill="none" xmlns="http://www.w3.org/2000/svg">
<path fill-rule="evenodd" clip-rule="evenodd" d="M9.16398 0.127493C8.7983 0.215161 8.25561 0.568798 7.91291 0.942823C7.41859 1.48217 7.30757 1.75482 7.30757 2.43021C7.30757 2.9312 8.62185 8.01278 10.6438 15.3294C12.4787 21.9692 13.98 27.4367 13.98 27.4793C13.98 27.5221 13.6078 27.557 13.153 27.557C11.1551 27.557 8.86261 29.0868 7.94089 31.0351C6.98062 33.0654 7.17765 35.3967 8.47135 37.3105L9.08224 38.2143L7.82005 39.6044C4.08017 43.7227 1.61824 48.5337 0.421473 54.0612C0.0565301 55.7462 0 56.5419 0 59.9922C0 64.373 0.241504 66.0276 1.3747 69.41C4.99225 80.2076 14.2773 87.9449 25.6539 89.6425C27.4078 89.9042 31.9919 89.9083 33.8029 89.6499C38.0406 89.045 42.2985 87.4719 45.8299 85.2065C46.6703 84.6675 47.3816 84.2577 47.4105 84.2957C47.4396 84.3339 47.5757 84.6569 47.713 85.0137C48.4813 87.0099 50.2428 88.7464 52.2795 89.5148C53.3514 89.9194 53.5178 89.9255 64.9497 89.9826C77.4597 90.0449 78.7322 89.9769 80.4765 89.1525C84.5928 87.2067 85.9571 81.6538 83.2053 78.0459L82.7525 77.4522L83.1242 76.9798C84.9505 74.6578 85.0808 70.843 83.4179 68.372L82.7948 67.4462L83.3974 66.5458C84.9963 64.156 85.0065 60.724 83.4216 58.369L82.8091 57.4588L83.258 56.8258C84.869 54.5535 85.0981 51.6471 83.8639 49.1399C83.1319 47.6533 81.4855 46.0983 80.0154 45.5048L78.9432 45.072L67.3421 45.0192L55.7408 44.9662L54.5179 43.1583C53.8453 42.164 52.6332 40.6432 51.8245 39.7788L50.354 38.207L50.8893 37.5659C51.8063 36.4676 52.2087 35.1018 52.1183 33.3953C52.0263 31.6629 51.601 30.6685 50.427 29.4412C49.4506 28.4201 48.1221 27.7386 46.8532 27.6078C46.2644 27.547 45.8592 27.415 45.8592 27.284C45.8592 27.1624 47.3188 22.7814 49.1027 17.5484C50.8867 12.3154 52.3459 7.77665 52.3455 7.4625C52.3448 6.75652 51.79 5.81627 51.1124 5.372C50.6416 5.0634 49.9155 5.03356 41.6943 4.98463L32.7863 4.93162L32.4781 3.2574C32.1317 1.37727 31.8525 0.836435 30.9836 0.361583C30.4313 0.0598422 29.555 0.0309286 20.0963 0.0029416C14.4387 -0.0137394 9.5191 0.0422346 9.16398 0.127493ZM27.7816 5.36199C27.833 5.59126 28.3021 7.98924 28.824 10.6906C29.3459 13.392 29.8923 15.8525 30.0378 16.1583C31.1317 18.4564 34.7354 17.6368 34.7378 15.0894C34.7382 14.7054 34.53 13.4269 34.2752 12.2481C34.0203 11.0693 33.8118 10.0699 33.8118 10.0271C33.8118 9.98429 36.6059 9.94926 40.0208 9.94926C43.4358 9.94926 46.2299 10.0117 46.2299 10.0883C46.2299 10.1646 44.9302 14.1264 43.3417 18.8921L40.4533 27.557H29.8239C19.8606 27.557 19.1887 27.5366 19.0995 27.2326C19.0473 27.0541 17.7026 22.1125 16.1114 16.251C14.5202 10.3895 13.1756 5.44762 13.1233 5.26932C13.034 4.96424 13.4647 4.94496 20.3584 4.94496H27.6884L27.7816 5.36199ZM46.8176 32.868C47.0152 33.0467 47.1566 33.4292 47.1566 33.7842C47.1566 35.039 48.1595 34.9707 29.6929 34.9707C13.3003 34.9707 13.0477 34.9652 12.6826 34.6001C12.2381 34.1556 12.2068 33.5351 12.6004 32.9733L12.8888 32.5613H29.6838C45.0515 32.5613 46.5075 32.5874 46.8176 32.868ZM46.6514 41.6415C48.2023 43.1092 50.4928 45.7982 50.4928 46.1511C50.4928 46.2208 50.1651 46.5739 49.7644 46.9356C48.0907 48.4479 47.243 50.5808 47.3794 52.9371C47.4633 54.3867 48.0216 55.9552 48.811 56.9587L49.1795 57.4271L48.5513 58.3853C46.8804 60.934 46.9898 64.652 48.803 66.9573L49.1637 67.4158L48.5304 68.3568C48.1821 68.8745 47.7664 69.7476 47.6066 70.2974C47.0688 72.1479 47.3358 74.7182 48.2084 76.0879C48.4763 76.5085 48.4371 76.5679 46.9561 77.9964C43.4903 81.3385 38.8493 83.7037 34.0898 84.5531C31.8464 84.9535 27.7216 84.9598 25.564 84.5661C15.004 82.6393 7.0872 74.7225 5.16036 64.1625C4.76669 62.0049 4.77299 57.88 5.17333 55.6366C6.21756 49.7853 9.52892 44.1736 14.0686 40.5617L14.8059 39.975H29.8482H44.8906L46.6514 41.6415ZM28.1447 47.806C27.6487 48.2605 27.4608 48.6058 27.3794 49.212C27.3118 49.716 27.1605 50.0522 26.9739 50.1137C24.0453 51.0783 22.2747 52.9612 21.78 55.6372C21.2453 58.5297 22.8971 61.6614 25.6203 62.9188C26.5561 63.3509 26.9778 63.4176 29.3335 63.5067C31.9615 63.6061 31.996 63.6129 32.438 64.1269C33.1071 64.9046 33.0551 65.9327 32.3148 66.5555L31.7447 67.0353L27.7275 67.0357C23.2255 67.0359 22.7883 67.1336 21.9998 68.3138C21.2647 69.4142 21.6043 70.98 22.7264 71.6641C23.2411 71.9779 23.6609 72.0383 25.3323 72.0389L27.3248 72.0396V72.6134C27.3248 73.9533 28.8383 75.1553 30.2033 74.8991C31.148 74.7219 32.0566 73.7704 32.2127 72.7947C32.2803 72.3716 32.4384 71.9938 32.5641 71.9553C35.567 71.0338 37.5313 68.8124 37.8186 66.0131C38.038 63.8756 36.9788 61.3113 35.3689 60.0834C33.903 58.9654 32.8061 58.6381 30.2104 58.5443C27.8739 58.46 27.7844 58.4416 27.2844 57.9416C26.5636 57.2208 26.5739 56.2663 27.3105 55.5297L27.8522 54.9879H31.8698C35.2386 54.9879 35.9926 54.9379 36.5395 54.6784C37.8182 54.0716 38.2806 52.3883 37.5139 51.1309C36.9806 50.2563 36.1737 49.9836 34.1178 49.9836H32.373L32.1648 49.1959C31.803 47.8262 31.0296 47.2035 29.6903 47.2035C28.9465 47.2035 28.6952 47.3015 28.1447 47.806ZM78.4235 50.3462C79.2629 50.8581 79.6536 51.5444 79.6536 52.5075C79.6536 53.4865 79.2041 54.1928 78.2813 54.6632C77.6962 54.9616 76.72 54.9874 65.9691 54.9874C55.2182 54.9874 54.242 54.9616 53.6568 54.6632C52.7255 54.1884 52.3153 53.5285 52.3153 52.5047C52.3153 51.4981 52.6689 50.862 53.5147 50.3462C54.0855 49.9981 54.5378 49.9849 65.9691 49.9849C77.4004 49.9849 77.8526 49.9981 78.4235 50.3462ZM78.8414 60.632C80.2335 61.9661 79.8235 64.1271 78.0507 64.7988C77.7014 64.9311 73.702 64.9965 65.9511 64.9965C56.4987 64.9965 54.2601 64.9493 53.758 64.7395C52.8698 64.3684 52.3153 63.5004 52.3153 62.4814C52.3153 61.5093 52.6778 60.8659 53.5147 60.3525C54.0892 60 54.4683 59.9906 66.1887 60.0371L78.2704 60.0849L78.8414 60.632ZM78.8396 70.639C79.9108 71.6654 79.9535 73.1485 78.9407 74.1611C78.6086 74.4932 78.0667 74.819 77.7366 74.885C76.9618 75.04 54.99 75.0427 54.2162 74.888C52.9481 74.6343 51.998 73.0683 52.3557 71.8211C52.5435 71.1666 53.179 70.4093 53.7363 70.1756C53.9402 70.0902 59.5437 70.0368 66.1887 70.0568L78.2704 70.0935L78.8396 70.639ZM78.4724 80.3126C80.0309 81.2332 80.0063 83.7322 78.4303 84.5935C77.875 84.897 76.9598 84.921 65.9691 84.921C54.9783 84.921 54.0631 84.897 53.5078 84.5935C51.9466 83.7404 51.9046 81.2712 53.4348 80.3215C53.8716 80.0504 55.1577 80.0187 65.9405 80.0144C76.7394 80.01 78.0112 80.0402 78.4724 80.3126Z" fill="#7058EE"/>
</svg>
