<svg width="35" height="35" viewBox="0 0 35 35" fill="none" xmlns="http://www.w3.org/2000/svg">
<path d="M25.4473 33.177C23.7994 33.177 22.0639 32.7833 20.2702 32.025C18.5202 31.2812 16.7556 30.2604 15.0348 29.0208C13.3285 27.7666 11.6806 26.3666 10.1202 24.8354C8.57435 23.275 7.17435 21.627 5.93477 19.9354C4.6806 18.1854 3.67435 16.4354 2.95977 14.7437C2.20143 12.9354 1.82227 11.1854 1.82227 9.53746C1.82227 8.39996 2.02643 7.32079 2.42018 6.31454C2.82852 5.27913 3.48477 4.31663 4.37435 3.48538C5.49727 2.37704 6.7806 1.82288 8.15143 1.82288C8.72018 1.82288 9.30352 1.95413 9.79935 2.18746C10.3681 2.44996 10.8493 2.84371 11.1993 3.36871L14.5827 8.13746C14.8889 8.56038 15.1223 8.96871 15.2827 9.37704C15.4723 9.81454 15.5743 10.252 15.5743 10.675C15.5743 11.2291 15.4139 11.7687 15.1077 12.2791C14.8889 12.6729 14.5535 13.0958 14.1306 13.5187L13.1389 14.5541C13.1535 14.5979 13.1681 14.627 13.1827 14.6562C13.3577 14.9625 13.7077 15.4875 14.3785 16.275C15.0931 17.0916 15.7639 17.8354 16.4348 18.5208C17.2952 19.3666 18.0098 20.0375 18.6806 20.5916C19.5119 21.2916 20.0514 21.6416 20.3723 21.802L20.3431 21.875L21.4077 20.825C21.8598 20.3729 22.2973 20.0375 22.7202 19.8187C23.5223 19.3229 24.5431 19.2354 25.5639 19.6583C25.9431 19.8187 26.3514 20.0375 26.7889 20.3437L31.6306 23.7854C32.1702 24.15 32.5639 24.6166 32.7973 25.1708C33.016 25.725 33.1181 26.2354 33.1181 26.7458C33.1181 27.4458 32.9577 28.1458 32.6514 28.802C32.3452 29.4583 31.966 30.027 31.4848 30.552C30.6535 31.4708 29.7494 32.127 28.6994 32.55C27.6931 32.9583 26.5994 33.177 25.4473 33.177ZM8.15143 4.01038C7.34935 4.01038 6.6056 4.36038 5.89102 5.06038C5.22018 5.68746 4.75352 6.37288 4.46185 7.11663C4.1556 7.87496 4.00977 8.67704 4.00977 9.53746C4.00977 10.8937 4.3306 12.3666 4.97227 13.8833C5.62852 15.4291 6.54727 17.0333 7.71393 18.6375C8.8806 20.2416 10.2077 21.802 11.666 23.275C13.1243 24.7187 14.6993 26.0604 16.3181 27.2416C17.8931 28.3937 19.5118 29.327 21.116 29.9979C23.6098 31.0625 25.9431 31.3104 27.8681 30.5083C28.6119 30.202 29.2681 29.7354 29.866 29.0645C30.2014 28.7 30.4639 28.3062 30.6827 27.8395C30.8577 27.475 30.9452 27.0958 30.9452 26.7166C30.9452 26.4833 30.9014 26.25 30.7848 25.9875C30.741 25.9 30.6535 25.7395 30.3764 25.55L25.5348 22.1083C25.2431 21.9041 24.9806 21.7583 24.7327 21.6562C24.4118 21.525 24.2806 21.3937 23.7848 21.7C23.4931 21.8458 23.2306 22.0645 22.9389 22.3562L21.8306 23.45C21.2618 24.0041 20.3869 24.1354 19.716 23.8875L19.3223 23.7125C18.7243 23.3916 18.0243 22.8958 17.2514 22.2395C16.5514 21.6416 15.7931 20.9416 14.8743 20.0375C14.1598 19.3083 13.4452 18.5354 12.7014 17.675C12.016 16.8729 11.5202 16.1875 11.2139 15.6187L11.0389 15.1812C10.9514 14.8458 10.9223 14.6562 10.9223 14.452C10.9223 13.927 11.1118 13.4604 11.4764 13.0958L12.5702 11.9583C12.8618 11.6666 13.0806 11.3895 13.2264 11.1416C13.3431 10.952 13.3868 10.7916 13.3868 10.6458C13.3868 10.5291 13.3431 10.3541 13.2702 10.1791C13.1681 9.94579 13.0077 9.68329 12.8035 9.40621L9.42018 4.62288C9.27435 4.41871 9.09935 4.27288 8.8806 4.17079C8.64727 4.06871 8.39935 4.01038 8.15143 4.01038ZM20.3431 21.8895L20.1098 22.8812L20.5035 21.8604C20.4306 21.8458 20.3723 21.8604 20.3431 21.8895Z" fill="#9791B7"/>
</svg>
