<svg width="70" height="60" viewBox="0 0 70 60" fill="none" xmlns="http://www.w3.org/2000/svg">
<path d="M8.07982 24.9998C6.82565 24.9998 5.83398 24.1498 5.83398 23.0748V17.2998C5.83398 10.5248 12.2798 4.99976 20.184 4.99976H26.9215C28.1756 4.99976 29.1673 5.84976 29.1673 6.92476C29.1673 7.99976 28.1756 8.84976 26.9215 8.84976H20.184C14.7298 8.84976 10.3257 12.6498 10.3257 17.2998V23.0748C10.3257 24.1498 9.30482 24.9998 8.07982 24.9998Z" fill="#9791B7"/>
<path d="M61.9215 24.9998C60.6965 24.9998 59.6757 24.1498 59.6757 23.0748V17.2998C59.6757 12.6248 55.2423 8.84976 49.8173 8.84976H43.0798C41.8257 8.84976 40.834 7.97476 40.834 6.92476C40.834 5.87476 41.8257 4.99976 43.0798 4.99976H49.8173C57.7215 4.99976 64.1673 10.5248 64.1673 17.2998V23.0748C64.1673 24.1498 63.1757 24.9998 61.9215 24.9998Z" fill="#9791B7"/>
<path d="M49.8166 55H45.7624C44.5374 55 43.5166 54.15 43.5166 53.075C43.5166 52.025 44.5083 51.1499 45.7624 51.1499H49.8166C55.2708 51.1499 59.6749 47.35 59.6749 42.7V39.25C59.6749 38.2 60.6666 37.325 61.9208 37.325C63.1458 37.325 64.1666 38.1749 64.1666 39.25V42.7C64.1666 49.475 57.7208 55 49.8166 55Z" fill="#9791B7"/>
<path d="M26.9215 54.9998H20.184C12.2798 54.9998 5.83398 49.4748 5.83398 42.6998V36.9248C5.83398 35.8498 6.82565 34.9998 8.07982 34.9998C9.33398 34.9998 10.3257 35.8498 10.3257 36.9248V42.6998C10.3257 47.3748 14.759 51.1498 20.184 51.1498H26.9215C28.1465 51.1498 29.1673 51.9998 29.1673 53.0748C29.1673 54.1498 28.1756 54.9998 26.9215 54.9998Z" fill="#9791B7"/>
<path d="M53.8413 28.0747H49.8746H20.1246H16.1579C14.9038 28.0747 13.9121 28.9497 13.9121 29.9997C13.9121 31.0497 14.9038 31.9247 16.1579 31.9247H20.1246H49.8746H53.8413C55.0954 31.9247 56.0871 31.0497 56.0871 29.9997C56.0871 28.9497 55.0954 28.0747 53.8413 28.0747Z" fill="#9791B7"/>
<path d="M20.125 34.85V35.675C20.125 39.825 24.0333 43.175 28.875 43.175H41.125C45.9667 43.175 49.875 39.825 49.875 35.675V34.85C49.875 34.55 49.6125 34.325 49.2625 34.325H20.7375C20.3875 34.325 20.125 34.55 20.125 34.85Z" fill="#9791B7"/>
<path d="M20.125 25.1497V24.3247C20.125 20.1747 24.0333 16.8247 28.875 16.8247H41.125C45.9667 16.8247 49.875 20.1747 49.875 24.3247V25.1497C49.875 25.4497 49.6125 25.6747 49.2625 25.6747H20.7375C20.3875 25.6747 20.125 25.4497 20.125 25.1497Z" fill="#9791B7"/>
</svg>
