<svg width="69" height="50" viewBox="0 0 69 50" fill="none" xmlns="http://www.w3.org/2000/svg">
<path fill-rule="evenodd" clip-rule="evenodd" d="M10.4342 0.167065C9.86098 0.419284 9.26317 1.14605 9.15941 1.71654C9.11372 1.96876 9.09507 5.45301 9.11827 9.45949C9.15927 16.5609 9.16766 16.7537 9.45376 17.1368C10.0116 17.8837 10.4663 18.1167 11.3665 18.1167C12.2666 18.1167 12.7214 17.8837 13.2792 17.1368C13.5634 16.7564 13.574 16.5505 13.6127 10.6382L13.6527 4.53238L19.7585 4.49238C25.6708 4.45366 25.8767 4.44313 26.2571 4.15889C27.004 3.60107 27.237 3.14631 27.237 2.24617C27.237 1.34604 27.004 0.891271 26.2571 0.333456C25.8732 0.0466479 25.6915 0.0392471 18.3661 0.0080754C12.35 -0.0176875 10.7825 0.0137684 10.4342 0.167065ZM42.3175 0.167065C40.9827 0.754486 40.5642 2.56643 41.5052 3.68476C42.2066 4.51829 42.252 4.52355 48.7208 4.52355H54.6279L54.6679 10.6338C54.7066 16.5505 54.7171 16.7564 55.0014 17.1368C55.5592 17.8837 56.0139 18.1167 56.9141 18.1167C57.8142 18.1167 58.2691 17.8835 58.8268 17.1367C59.1147 16.7511 59.1203 16.5982 59.1203 9.07831C59.1203 1.5584 59.1147 1.40553 58.8268 1.01994C58.6654 0.803735 58.3565 0.494865 58.1405 0.333456C57.7566 0.0466479 57.5748 0.0392471 50.2495 0.0080754C44.2333 -0.0176875 42.6658 0.0137684 42.3175 0.167065ZM1.32465 22.9423C0.383238 23.3535 -0.159917 24.4454 0.0419159 25.5211C0.166745 26.1869 0.877715 26.9731 1.52292 27.1594C1.88332 27.2635 12.0118 27.2968 34.4501 27.2679L66.8567 27.2262L67.2498 26.9327C67.9967 26.375 68.2298 25.9201 68.2298 25.02C68.2298 24.1198 67.9967 23.6649 67.2498 23.1073L66.8567 22.8138L34.3078 22.7833C7.46418 22.7581 1.68263 22.786 1.32465 22.9423ZM10.4342 32.0444C9.85785 32.3059 9.2626 33.0324 9.15941 33.5999C9.11372 33.8521 9.09507 37.3363 9.11827 41.3428C9.15927 48.4443 9.16766 48.637 9.45376 49.0202C9.61517 49.2362 9.92404 49.5451 10.1402 49.7065C10.5258 49.9944 10.6787 50 18.1986 50C25.7185 50 25.8714 49.9944 26.257 49.7065C27.0038 49.1488 27.237 48.6939 27.237 47.7938C27.237 46.8937 27.004 46.4389 26.2571 45.8811C25.8767 45.5968 25.6708 45.5863 19.7585 45.5476L13.6527 45.5076L13.6127 39.4018C13.574 33.4894 13.5634 33.2836 13.2792 32.9031C13.1178 32.6871 12.8183 32.3852 12.6138 32.2324C12.1426 31.8807 11.0103 31.7831 10.4342 32.0444ZM55.9889 32.0451C55.4617 32.2892 54.989 32.7914 54.7886 33.3203C54.6899 33.5807 54.6367 35.7854 54.6367 39.6143V45.5076L48.5265 45.5476C42.6097 45.5863 42.4039 45.5968 42.0234 45.8811C41.2766 46.4389 41.0436 46.8937 41.0436 47.7938C41.0436 48.6939 41.2767 49.1488 42.0236 49.7065C42.4092 49.9944 42.562 50 50.0819 50C57.6019 50 57.7547 49.9944 58.1403 49.7065C58.3565 49.5451 58.6654 49.2362 58.8268 49.02C59.1147 48.6344 59.1203 48.4816 59.1203 40.9616C59.1203 33.4417 59.1147 33.2889 58.8268 32.9033C58.6654 32.6871 58.3659 32.3852 58.1614 32.2324C57.6897 31.8803 56.5561 31.7825 55.9889 32.0451Z" fill="#10054C"/>
</svg>
