<svg width="70" height="60" viewBox="0 0 70 60" fill="none" xmlns="http://www.w3.org/2000/svg">
<path d="M8.07982 24.9995C6.82565 24.9995 5.83398 24.1495 5.83398 23.0745V17.2995C5.83398 10.5245 12.2798 4.99951 20.184 4.99951H26.9215C28.1756 4.99951 29.1673 5.84951 29.1673 6.92451C29.1673 7.99951 28.1756 8.84951 26.9215 8.84951H20.184C14.7298 8.84951 10.3257 12.6495 10.3257 17.2995V23.0745C10.3257 24.1495 9.30482 24.9995 8.07982 24.9995Z" fill="#7058EE"/>
<path d="M61.9215 24.9995C60.6965 24.9995 59.6757 24.1495 59.6757 23.0745V17.2995C59.6757 12.6245 55.2423 8.84951 49.8173 8.84951H43.0798C41.8257 8.84951 40.834 7.97451 40.834 6.92451C40.834 5.87451 41.8257 4.99951 43.0798 4.99951H49.8173C57.7215 4.99951 64.1673 10.5245 64.1673 17.2995V23.0745C64.1673 24.1495 63.1757 24.9995 61.9215 24.9995Z" fill="#7058EE"/>
<path d="M49.8166 55.0002H45.7624C44.5374 55.0002 43.5166 54.1502 43.5166 53.0752C43.5166 52.0252 44.5083 51.1502 45.7624 51.1502H49.8166C55.2708 51.1502 59.6749 47.3502 59.6749 42.7002V39.2502C59.6749 38.2002 60.6666 37.3252 61.9208 37.3252C63.1458 37.3252 64.1666 38.1752 64.1666 39.2502V42.7002C64.1666 49.4752 57.7208 55.0002 49.8166 55.0002Z" fill="#7058EE"/>
<path d="M26.9215 54.9995H20.184C12.2798 54.9995 5.83398 49.4745 5.83398 42.6995V36.9245C5.83398 35.8495 6.82565 34.9995 8.07982 34.9995C9.33398 34.9995 10.3257 35.8495 10.3257 36.9245V42.6995C10.3257 47.3745 14.759 51.1495 20.184 51.1495H26.9215C28.1465 51.1495 29.1673 51.9995 29.1673 53.0745C29.1673 54.1495 28.1756 54.9995 26.9215 54.9995Z" fill="#7058EE"/>
<path d="M53.8413 28.0747H49.8746H20.1246H16.1579C14.9038 28.0747 13.9121 28.9497 13.9121 29.9997C13.9121 31.0497 14.9038 31.9247 16.1579 31.9247H20.1246H49.8746H53.8413C55.0954 31.9247 56.0871 31.0497 56.0871 29.9997C56.0871 28.9497 55.0954 28.0747 53.8413 28.0747Z" fill="#7058EE"/>
<path d="M20.125 34.8502V35.6752C20.125 39.8252 24.0333 43.1752 28.875 43.1752H41.125C45.9667 43.1752 49.875 39.8252 49.875 35.6752V34.8502C49.875 34.5502 49.6125 34.3252 49.2625 34.3252H20.7375C20.3875 34.3252 20.125 34.5502 20.125 34.8502Z" fill="#7058EE"/>
<path d="M20.125 25.1497V24.3247C20.125 20.1747 24.0333 16.8247 28.875 16.8247H41.125C45.9667 16.8247 49.875 20.1747 49.875 24.3247V25.1497C49.875 25.4497 49.6125 25.6747 49.2625 25.6747H20.7375C20.3875 25.6747 20.125 25.4497 20.125 25.1497Z" fill="#7058EE"/>
</svg>
