<svg width="60" height="60" viewBox="0 0 60 60" fill="none" xmlns="http://www.w3.org/2000/svg">
<path fill-rule="evenodd" clip-rule="evenodd" d="M30.1841 0.0351886C26.8282 0.397065 23.6747 1.76506 20.9351 4.04737C18.229 6.302 16.188 9.77406 15.3865 13.4865C15.0908 14.8563 15.0932 18.7316 15.3907 20.1113C16.8544 26.9003 22.0099 31.9862 28.8044 33.3438C30.2391 33.6304 33.5344 33.6293 34.9754 33.3415C41.9883 31.9412 47.2112 26.6068 48.4828 19.5458C48.7201 18.2283 48.7201 15.3488 48.4828 14.0313C47.5148 8.65642 44.0724 4.02474 39.3273 1.71265C37.9704 1.05163 36.4148 0.523006 35.0272 0.25154C34.0774 0.0656772 31.1243 -0.0662446 30.1841 0.0351886ZM4.85879 5.75485C4.3769 5.96475 3.89466 6.56139 3.80029 7.06421C3.69925 7.60339 4.01867 8.4457 4.43762 8.74402C4.61169 8.86808 5.66784 9.42274 6.78447 9.97681C9.01071 11.0812 9.45908 11.1837 10.1699 10.75C10.7676 10.3855 11.0396 9.85943 10.9886 9.1664C10.9155 8.17341 10.748 8.02953 8.17341 6.74948C6.89068 6.11168 5.70054 5.59197 5.5287 5.59443C5.35686 5.59701 5.05548 5.66913 4.85879 5.75485ZM55.7966 6.64499C54.6039 7.23682 53.5044 7.83522 53.3532 7.97465C52.1647 9.07118 52.8798 10.9821 54.4791 10.9835C55.1853 10.9842 59.2825 8.94125 59.6718 8.39445C60.0671 7.83921 60.1064 7.039 59.7632 6.53875C59.384 5.98597 58.9637 5.70067 58.4239 5.62949C58.0213 5.57637 57.6996 5.70079 55.7966 6.64499ZM32.8114 7.79078C33.2263 8.09813 33.6421 8.73393 33.6421 9.06121C33.6421 9.2785 33.7244 9.3471 34.0607 9.41019C34.5464 9.50142 35.1002 9.93037 35.346 10.4058C35.7185 11.1265 35.4319 12.1109 34.709 12.594C34.3394 12.841 34.1848 12.8602 32.5639 12.8602C30.7185 12.8602 30.2671 12.9628 30.0118 13.4401C29.7479 13.9333 29.9814 14.7134 30.4549 14.9206C30.5638 14.9684 31.4191 15.0387 32.3555 15.0771C33.9696 15.1432 34.098 15.1666 34.8294 15.5269C35.7585 15.9847 36.5818 16.8237 37.0204 17.7597C37.2955 18.3469 37.3345 18.576 37.3345 19.6029C37.3345 20.6298 37.2955 20.8589 37.0204 21.446C36.4595 22.6432 35.3101 23.6659 34.1403 24.0087C33.7291 24.1291 33.6421 24.2049 33.6421 24.4426C33.6421 24.9424 33.1691 25.623 32.6457 25.8765C32.3794 26.0055 32.0445 26.111 31.9016 26.111C31.1693 26.111 30.3159 25.3891 30.1778 24.6527C30.1146 24.3158 30.0437 24.2456 29.7018 24.1813C29.159 24.0795 28.5169 23.4908 28.3535 22.9454C28.1199 22.1654 28.4416 21.3035 29.109 20.9214C29.271 20.8285 30.0811 20.7542 31.3374 20.7169L33.3113 20.6582L33.5939 20.3292C33.9668 19.8952 33.9725 19.2778 33.6072 18.9123C33.3595 18.6645 33.2057 18.6374 31.7023 18.5767C30.4257 18.5251 29.9181 18.4546 29.3891 18.2554C26.3695 17.1183 25.4059 13.2908 27.5488 10.9454C28.0978 10.3443 29.1431 9.68588 29.7879 9.53473C30.0365 9.47644 30.1091 9.37478 30.1688 9.00118C30.2549 8.46258 30.7247 7.85527 31.2332 7.62485C31.6837 7.42093 32.4161 7.49785 32.8114 7.79078ZM6.53679 23.7364C4.3667 24.8352 4.268 24.9004 4.00754 25.4074C3.56761 26.2638 3.78107 27.0627 4.61673 27.6868C5.26238 28.169 5.79737 28.0422 8.23554 26.8287C10.6977 25.6033 10.9148 25.4134 10.9879 24.4215C11.0397 23.7168 10.7714 23.1938 10.1699 22.827C9.43352 22.3779 9.01165 22.4835 6.53679 23.7364ZM53.5575 22.8593C53.0057 23.228 52.7249 23.8119 52.7814 24.4727C52.8611 25.4054 53.0479 25.5616 55.6135 26.8383C57.6888 27.871 58.0191 28.0014 58.4239 27.9478C58.9638 27.8764 59.3841 27.591 59.7632 27.0383C59.9809 26.7211 60.027 26.5268 59.987 26.0967C59.8993 25.1537 59.6421 24.9339 57.1893 23.7062C54.7079 22.4641 54.2934 22.3675 53.5575 22.8593ZM50.2011 37.0727C48.7739 37.4743 48.5917 37.6272 43.4299 42.7584C38.8189 47.3421 38.451 47.6796 37.6276 48.0811C36.4155 48.6722 35.5406 48.7648 31.5907 48.7209C28.557 48.6871 28.2785 48.6666 27.9106 48.4498C26.7646 47.7745 26.6656 46.3055 27.7132 45.5219C28.013 45.2978 28.246 45.2801 31.6283 45.2245L35.2246 45.1654L35.9426 44.8339C36.7992 44.4385 37.3777 43.8728 37.8211 42.997C38.0997 42.4466 38.1467 42.2146 38.1417 41.4139C38.133 40.0137 37.557 38.9435 36.4285 38.2308C35.4409 37.6072 35.1304 37.5848 28.1019 37.6314C20.9722 37.6784 21.063 37.6698 19.4585 38.4452C18.2946 39.0074 16.9481 40.4118 16.2746 41.7657C15.9858 42.3462 15.7186 42.9398 15.6809 43.0849C15.6146 43.3394 15.564 43.3488 14.2532 43.3488H12.8942V49.8017V56.2547L25.7591 56.2175C40.2039 56.1758 39.0722 56.2456 40.9683 55.2808C41.8681 54.823 42.1941 54.516 49.02 47.6984C56.8922 39.8358 56.5166 40.2877 56.0951 39.1838C55.9423 38.7835 55.7182 38.5303 55.1199 38.0821C54.6928 37.7621 54.0504 37.3852 53.6926 37.2447C52.8444 36.9117 51.0819 36.8248 50.2011 37.0727ZM1.24479 39.597C1.05911 39.6545 0.775322 39.823 0.614262 39.9714C-0.0148565 40.5513 3.03982e-05 40.3124 3.03982e-05 49.7992C3.03982e-05 58.3906 0.00565695 58.6136 0.235994 59.0652C0.387911 59.3631 0.636885 59.6122 0.934741 59.7642C1.36611 59.9843 1.62106 60.0002 4.71344 60C8.41793 59.9999 8.59318 59.9676 9.11152 59.1913L9.37761 58.7929V49.828C9.37761 39.8394 9.41676 40.3277 8.57395 39.8034C8.15923 39.5454 8.0515 39.537 4.86465 39.5151C3.05947 39.5026 1.43058 39.5396 1.24479 39.597Z" fill="#7058EE"/>
</svg>
