<svg width="55" height="55" viewBox="0 0 55 55" fill="none" xmlns="http://www.w3.org/2000/svg">
<path fill-rule="evenodd" clip-rule="evenodd" d="M37.5575 0.17788C37.3415 0.295278 37.0512 0.574152 36.9124 0.797445C36.6612 1.20146 36.6599 1.2221 36.6282 5.14397L36.5965 9.08454L35.3381 9.15378C31.7954 9.34847 28.868 10.1081 25.963 11.5863C19.1152 15.071 14.5912 21.7102 13.8189 29.4086C13.6497 31.0955 13.6726 35.1536 13.8538 35.5874C14.2771 36.6002 15.6587 36.9442 16.4909 36.2439C16.6655 36.0971 17.0124 35.6032 17.2618 35.1463C19.9892 30.1509 24.5575 26.7649 30.2096 25.5494C31.0834 25.3615 31.7818 25.3077 33.9405 25.2618L36.5963 25.2054L36.6282 29.1692C36.6599 33.117 36.6611 33.1347 36.9128 33.5396C37.397 34.3185 38.5062 34.5914 39.2383 34.1118C39.7359 33.7858 54.6895 18.1941 54.8407 17.8436C55.0305 17.4036 55.0305 16.9329 54.8407 16.4929C54.6887 16.1404 39.7344 0.549748 39.2337 0.221743C38.8109 -0.0553039 38.024 -0.0759454 37.5575 0.17788ZM5.75562 9.2285C3.26177 9.59338 1.02315 11.5539 0.24974 14.0505L0 14.8568V32.1118V49.3667L0.238451 50.1192C0.572799 51.1746 1.17205 52.1464 1.99351 52.9656C2.80336 53.7732 3.57602 54.2605 4.69431 54.6691L5.48288 54.9571L27.1182 54.9855C51.3003 55.0173 49.5644 55.0711 51.2213 54.237C52.791 53.4467 54.1015 51.9145 54.6972 50.173L54.9363 49.4742L54.9679 39.5298C54.9923 31.8869 54.9688 29.4742 54.8668 29.1051C54.5937 28.1178 53.4495 27.3789 52.4094 27.5184C51.7485 27.607 51.0612 28.0663 50.7195 28.6476L50.421 29.1553L50.3672 39.0552L50.3134 48.9553L50.0195 49.3759C49.8579 49.6074 49.547 49.9177 49.3286 50.0655L48.9317 50.3343H27.4668H6.00203L5.58125 50.0403C5.34978 49.8788 5.03941 49.5678 4.89159 49.3495L4.62282 48.9525L4.59497 32.198C4.56777 15.865 4.57229 15.4334 4.77322 15.0426C5.03812 14.5276 5.48546 14.1058 5.9901 13.895C6.32638 13.7544 7.00497 13.728 10.267 13.728C13.5289 13.728 14.2075 13.7016 14.5438 13.561C15.4001 13.2034 15.9648 12.3729 15.9648 11.4712C15.9648 10.5225 15.5572 9.83634 14.7285 9.3904C14.3125 9.16646 14.1705 9.1584 10.3745 9.14292C8.21625 9.1341 6.13781 9.17259 5.75562 9.2285Z" fill="#9791B7"/>
</svg>
