<svg width="41" height="30" viewBox="0 0 41 30" fill="none" xmlns="http://www.w3.org/2000/svg">
<path fill-rule="evenodd" clip-rule="evenodd" d="M37.899 0.107095C37.6813 0.188039 37.3858 0.362386 37.2423 0.494717C37.0988 0.626945 32.5129 5.69373 27.0514 11.7542C19.6889 19.9241 16.9841 22.8597 16.5901 23.1079C15.9618 23.5037 15.2707 23.553 14.6079 23.2492C14.3714 23.1408 11.9154 21.0076 8.84065 18.2398C5.29243 15.046 3.33269 13.3517 3.03289 13.2191C1.61723 12.5924 0.0059889 13.6394 1.56334e-05 15.1897C-0.00122021 15.5092 0.0709738 15.9386 0.16047 16.1442C0.275095 16.4072 2.35956 18.4376 7.19131 22.9924C10.9687 26.5534 14.2522 29.5828 14.4881 29.7244C15.1306 30.1101 16.0041 30.0892 16.6432 29.6729C17.1862 29.3192 40.2287 3.7931 40.5537 3.18541C41.2703 1.8448 40.3435 0.162705 38.8042 0.0104985C38.4946 -0.02019 38.1398 0.0177075 37.899 0.107095Z" fill="white"/>
</svg>
