<svg width="65" height="65" viewBox="0 0 65 65" fill="none" xmlns="http://www.w3.org/2000/svg">
<path d="M34.8827 56.4958H18.4431C8.82852 56.4958 5.41602 49.7521 5.41602 43.4687V21.5312C5.41602 12.1604 9.07227 8.50417 18.4431 8.50417H34.8827C44.2535 8.50417 47.9098 12.1604 47.9098 21.5312V43.4687C47.9098 52.8396 44.2535 56.4958 34.8827 56.4958ZM18.4431 12.6208C11.3743 12.6208 9.53268 14.4625 9.53268 21.5312V43.4687C9.53268 46.8 10.6973 52.3792 18.4431 52.3792H34.8827C41.9514 52.3792 43.7931 50.5375 43.7931 43.4687V21.5312C43.7931 14.4625 41.9514 12.6208 34.8827 12.6208H18.4431V12.6208Z" fill="#10054C"/>
<path d="M56.2786 49.0479C55.1141 49.0479 53.6245 48.6688 51.9182 47.4771L44.687 42.4125C44.1453 42.0333 43.8203 41.4104 43.8203 40.7333V24.2667C43.8203 23.5896 44.1453 22.9667 44.687 22.5875L51.9182 17.5229C55.1411 15.275 57.4974 15.925 58.6078 16.4938C59.7182 17.0896 61.6141 18.6333 61.6141 22.5604V42.4125C61.6141 46.3396 59.7182 47.9104 58.6078 48.4792C58.0932 48.7771 57.2807 49.0479 56.2786 49.0479ZM47.9099 39.65L54.2745 44.0917C55.4932 44.9313 56.3599 45.0125 56.712 44.8229C57.0911 44.6333 57.4974 43.875 57.4974 42.4125V22.5875C57.4974 21.0979 57.0641 20.3667 56.712 20.1771C56.3599 19.9875 55.4932 20.0688 54.2745 20.9083L47.9099 25.35V39.65Z" fill="#292D32"/>
<path d="M31.1465 31.8229C27.7882 31.8229 25.0527 29.0875 25.0527 25.7292C25.0527 22.3708 27.7882 19.6354 31.1465 19.6354C34.5048 19.6354 37.2402 22.3708 37.2402 25.7292C37.2402 29.0875 34.5048 31.8229 31.1465 31.8229ZM31.1465 23.6979C30.0361 23.6979 29.1152 24.6187 29.1152 25.7292C29.1152 26.8396 30.0361 27.7604 31.1465 27.7604C32.2569 27.7604 33.1777 26.8396 33.1777 25.7292C33.1777 24.6187 32.2569 23.6979 31.1465 23.6979Z" fill="#292D32"/>
</svg>
