<svg width="75" height="75" viewBox="0 0 75 75" fill="none" xmlns="http://www.w3.org/2000/svg">
<path d="M19.3441 24.4063C18.5941 24.4063 17.9066 24.0625 17.4379 23.4375C16.9066 22.7188 16.8441 21.7812 17.2504 20.9999C17.7816 19.9374 18.5316 18.9063 19.5004 17.9688L29.6566 7.78125C34.8441 2.625 43.2816 2.625 48.4691 7.78125L53.9379 13.3438C56.2504 15.6251 57.6566 18.6876 57.8129 21.9376C57.8441 22.6563 57.5629 23.3438 57.0316 23.8125C56.5004 24.2813 55.7816 24.5 55.0941 24.375C54.4691 24.2812 53.8129 24.2501 53.1254 24.2501H21.8754C21.1254 24.2501 20.4066 24.3125 19.6879 24.4063C19.5941 24.4063 19.4691 24.4063 19.3441 24.4063ZM24.5629 19.5313H52.5629C52.1566 18.4688 51.5004 17.5001 50.6254 16.6251L45.1254 11.0625C41.7816 7.74996 36.3129 7.74996 32.9379 11.0625L24.5629 19.5313Z" fill="white"/>
<path d="M15.625 74.2188C10.4375 74.2188 5.5625 71.4688 2.9375 67C1.53125 64.75 0.78125 62.0938 0.78125 59.375C0.78125 51.1875 7.4375 44.5312 15.625 44.5312C23.8125 44.5312 30.4688 51.1875 30.4688 59.375C30.4688 62.0938 29.7188 64.75 28.3125 67.0313C25.6875 71.4688 20.8125 74.2188 15.625 74.2188ZM15.625 49.2188C10.0313 49.2188 5.46875 53.7813 5.46875 59.375C5.46875 61.2187 5.96875 63.0312 6.9375 64.5937C8.78125 67.7187 12.0313 69.5312 15.625 69.5312C19.2187 69.5312 22.4688 67.6875 24.3125 64.625C25.2813 63.0312 25.7812 61.25 25.7812 59.375C25.7812 53.7813 21.2187 49.2188 15.625 49.2188Z" fill="white"/>
<path d="M20.2813 61.6562H10.9688C9.6875 61.6562 8.625 60.5937 8.625 59.3125C8.625 58.0313 9.6875 56.9688 10.9688 56.9688H20.3125C21.5938 56.9688 22.6563 58.0313 22.6563 59.3125C22.6563 60.5937 21.5938 61.6562 20.2813 61.6562Z" fill="white"/>
<path d="M15.625 66.4375C14.3438 66.4375 13.2812 65.375 13.2812 64.0937V54.75C13.2812 53.4688 14.3438 52.4062 15.625 52.4062C16.9062 52.4062 17.9688 53.4688 17.9688 54.75V64.0937C17.9688 65.4062 16.9062 66.4375 15.625 66.4375Z" fill="white"/>
<path d="M53.125 71.0938H23.8437C22.8437 71.0938 21.9687 70.4688 21.625 69.5625C21.2812 68.625 21.5625 67.5937 22.3125 66.9687C23.0625 66.3437 23.75 65.5313 24.25 64.6563C25.25 63.0625 25.75 61.25 25.75 59.4063C25.75 53.8125 21.1875 49.25 15.5937 49.25C12.6875 49.25 9.90625 50.5 7.96875 52.7187C7.3125 53.4375 6.28125 53.7188 5.375 53.3751C4.46875 53.0313 3.84375 52.1563 3.84375 51.1875V37.5C3.84375 27.875 9.78125 20.9063 19 19.75C19.8437 19.625 20.8125 19.5312 21.8125 19.5312H53.0625C53.8125 19.5312 54.7812 19.5625 55.7812 19.7187C65 20.7812 71.0312 27.7813 71.0312 37.5V53.125C71.0937 63.875 63.875 71.0938 53.125 71.0938ZM28.6875 66.4062H53.125C61.1875 66.4062 66.4062 61.1875 66.4062 53.125V37.5C66.4062 30.1875 62.125 25.1562 55.1875 24.3437C54.4375 24.2187 53.7812 24.2188 53.125 24.2188H21.875C21.125 24.2188 20.4062 24.2812 19.6875 24.375C12.8125 25.25 8.59375 30.25 8.59375 37.5V46.3125C10.7187 45.1563 13.1562 44.5312 15.625 44.5312C23.8125 44.5312 30.4687 51.1875 30.4687 59.375C30.4687 61.8438 29.8437 64.2812 28.6875 66.4062Z" fill="white"/>
<path d="M68.75 53.9062H59.375C54.625 53.9062 50.7812 50.0625 50.7812 45.3125C50.7812 40.5625 54.625 36.7188 59.375 36.7188H68.75C70.0312 36.7188 71.0938 37.7813 71.0938 39.0625C71.0938 40.3437 70.0312 41.4062 68.75 41.4062H59.375C57.2188 41.4062 55.4688 43.1563 55.4688 45.3125C55.4688 47.4687 57.2188 49.2188 59.375 49.2188H68.75C70.0312 49.2188 71.0938 50.2813 71.0938 51.5625C71.0938 52.8437 70.0312 53.9062 68.75 53.9062Z" fill="white"/>
</svg>
