<svg width="34" height="34" viewBox="0 0 34 34" fill="none" xmlns="http://www.w3.org/2000/svg">
<path fill-rule="evenodd" clip-rule="evenodd" d="M15.0477 0.0419525C12.2987 0.35579 9.67976 1.30455 7.47927 2.7835C6.41068 3.50169 5.87358 3.94083 4.95872 4.84413C2.40775 7.3629 0.776289 10.5171 0.1575 14.1266C0.0212598 14.9215 0 15.28 0 16.7884C0 18.2968 0.0212598 18.6553 0.1575 19.4503C1.30635 26.1517 6.14612 31.4406 12.64 33.0914C14.1451 33.474 14.9657 33.5687 16.7761 33.5691C18.5579 33.5693 19.3223 33.4838 20.8066 33.1179C23.5357 32.4451 26.1908 31.011 28.1905 29.1295C29.7999 27.6152 30.9243 26.1035 31.8526 24.2054C32.679 22.5159 33.1563 21.0065 33.4308 19.2152C33.6086 18.0547 33.6078 15.5126 33.4292 14.3617C33.1466 12.5395 32.6802 11.0635 31.8526 9.37143C30.2516 6.09804 27.7164 3.51468 24.4666 1.8452C22.8067 0.992489 21.3988 0.518691 19.5789 0.200546C18.7686 0.0589057 18.3132 0.023017 17.0838 0.00421815C16.2566 -0.00849669 15.3404 0.0085248 15.0477 0.0419525ZM16.0926 4.723V8.03842L15.9046 8.03774C15.4444 8.0361 13.6639 7.8905 12.948 7.79595C12.2124 7.69882 10.9519 7.49093 10.9149 7.46058C10.9058 7.45313 11.0078 7.17552 11.1416 6.84371C11.8029 5.2037 12.7039 3.76391 13.6664 2.80893C14.3041 2.17627 14.7649 1.85833 15.4567 1.57389C16.1604 1.28459 16.0926 0.948876 16.0926 4.723ZM18.451 1.74478C19.6773 2.34901 20.7575 3.55002 21.7341 5.39524C22.0809 6.05047 22.6791 7.42196 22.6366 7.46441C22.6054 7.49572 21.0167 7.75125 20.365 7.82979C19.7575 7.90307 18.0126 8.03665 17.6477 8.03781L17.4597 8.03842V4.71445V1.39048L17.6819 1.43293C17.8041 1.45624 18.1502 1.59658 18.451 1.74478ZM12.5273 2.00571C12.4722 2.07147 12.295 2.27915 12.1336 2.46714C11.3682 3.35841 10.386 5.07566 9.83473 6.48592L9.57326 7.15509L9.36366 7.11243C8.93423 7.02513 6.87914 6.3101 6.35592 6.06598L5.81363 5.81299L6.59518 5.14012C8.07263 3.86816 9.86269 2.82582 11.6586 2.19172C12.6232 1.85122 12.6639 1.84247 12.5273 2.00571ZM21.8101 2.16212C23.5858 2.76655 25.4525 3.8469 26.9571 5.14088L27.7387 5.81299L27.1964 6.06598C26.6732 6.3101 24.6181 7.02513 24.1886 7.11243L23.979 7.15509L23.7151 6.48592C23.1403 5.02843 22.1898 3.36511 21.4187 2.46714C20.9543 1.92628 20.9227 1.88608 20.9621 1.88608C20.9825 1.88608 21.3641 2.01029 21.8101 2.16212ZM5.79961 7.28565C6.61876 7.66334 8.68458 8.38022 8.95378 8.38022C9.13165 8.38022 9.12277 8.52931 8.89007 9.45572C8.47041 11.1261 8.17435 13.2048 8.05745 15.3016L8.01268 16.1048H4.65999H1.30731L1.3544 15.4806C1.56857 12.6437 2.8149 9.47664 4.59929 7.235L4.8851 6.87591L5.10549 6.97154C5.22676 7.02418 5.53909 7.16548 5.79961 7.28565ZM29.6382 8.20112C30.4985 9.48511 31.2265 11.0397 31.636 12.4674C31.9404 13.5291 32.2254 15.1628 32.2254 15.8467V16.1048H28.8825H25.5396L25.4948 15.3016C25.3779 13.2048 25.0819 11.1261 24.6622 9.45572C24.5322 8.9381 24.4445 8.48433 24.4673 8.44742C24.4902 8.41044 24.5608 8.37995 24.6244 8.37961C24.8583 8.37831 27.1555 7.5651 27.8846 7.22556L28.6365 6.87536L28.8652 7.13218C28.991 7.27341 29.3388 7.75446 29.6382 8.20112ZM11.5858 8.95711C12.7253 9.14967 14.5814 9.33725 15.3478 9.33725C15.6385 9.33725 15.9249 9.35591 15.9844 9.37875C16.081 9.4158 16.0926 9.77783 16.0926 12.7625V16.1048H12.7328H9.37296L9.42109 15.1321C9.51057 13.3249 9.77341 11.5028 10.1905 9.79868C10.3357 9.20566 10.4707 8.79038 10.5184 8.79038C10.563 8.79038 11.0433 8.86537 11.5858 8.95711ZM23.3605 9.79868C23.7815 11.5279 24.042 13.3309 24.1312 15.1321L24.1793 16.1048H20.8195H17.4597V12.7625C17.4597 9.77783 17.4713 9.4158 17.5679 9.37875C17.6274 9.35591 17.9115 9.33725 18.1993 9.33725C18.9606 9.33725 20.8431 9.14694 21.8689 8.96627C23.2524 8.72263 23.0742 8.62317 23.3605 9.79868ZM8.05745 18.2752C8.17435 20.3721 8.47041 22.4507 8.89007 24.1211C9.02009 24.6387 9.10998 25.089 9.08975 25.1217C9.06958 25.1544 8.94619 25.2011 8.8157 25.2257C8.38558 25.3063 6.70578 25.8905 6.00954 26.2016C5.63357 26.3696 5.22676 26.5506 5.10549 26.6039L4.8851 26.7009L4.59929 26.3418C2.8149 24.1002 1.56857 20.9332 1.3544 18.0963L1.30731 17.472H4.65999H8.01268L8.05745 18.2752ZM16.0926 20.8136V24.1553L15.9387 24.1965C15.8541 24.2192 15.5677 24.2382 15.3021 24.2386C14.5709 24.2401 12.6925 24.4327 11.5858 24.6197C11.0433 24.7115 10.563 24.7865 10.5184 24.7865C10.4707 24.7865 10.3357 24.3712 10.1905 23.7782C9.77341 22.074 9.51057 20.252 9.42109 18.4447L9.37296 17.472H12.7328H16.0926V20.8136ZM24.1312 18.4447C24.042 20.246 23.7815 22.0489 23.3605 23.7782C23.2159 24.3719 23.0816 24.7865 23.0339 24.7865C22.9893 24.7865 22.509 24.7115 21.9665 24.6197C20.827 24.4272 18.9709 24.2396 18.2045 24.2396C17.9138 24.2396 17.6274 24.2209 17.5679 24.1981C17.4713 24.161 17.4597 23.799 17.4597 20.8143V17.472H20.8195H24.1793L24.1312 18.4447ZM32.2254 17.7301C32.2254 18.4215 31.9334 20.0935 31.6378 21.0951C31.0884 22.9563 30.0813 24.9244 28.953 26.3418L28.6672 26.7009L28.4468 26.6039C28.3255 26.5506 27.9187 26.3696 27.5428 26.2016C26.8465 25.8905 25.1667 25.3063 24.7366 25.2257C24.6061 25.2011 24.4827 25.1544 24.4625 25.1217C24.4423 25.089 24.5322 24.6387 24.6622 24.1211C25.0795 22.4601 25.3758 20.3792 25.4944 18.2752L25.5396 17.472H28.8825H32.2254V17.7301ZM16.0926 28.8624V32.1864L15.8704 32.1439C15.485 32.0704 14.5719 31.5771 14.103 31.1891C13.2907 30.517 12.5111 29.4907 11.8182 28.1816C11.4779 27.5387 10.8726 26.1545 10.9143 26.1145C10.9419 26.088 12.5878 25.8225 13.2215 25.7423C13.8351 25.6647 15.1308 25.5646 15.7337 25.5482L16.0926 25.5384V28.8624ZM18.7928 25.6062C19.3191 25.6429 20.0266 25.7062 20.365 25.7471C21.0167 25.8256 22.6054 26.0811 22.6366 26.1124C22.6791 26.1549 22.0809 27.5264 21.7341 28.1816C21.0412 29.4907 20.2616 30.517 19.4493 31.1891C18.9804 31.5771 18.0673 32.0704 17.6819 32.1439L17.4597 32.1864V28.8624V25.5384L17.6477 25.539C17.7511 25.5394 18.2664 25.5696 18.7928 25.6062ZM9.83582 27.0936C10.4096 28.5617 11.3568 30.1968 12.221 31.2105C12.4284 31.454 12.5893 31.6621 12.5785 31.6729C12.5172 31.7342 10.7923 31.0675 9.97439 30.6665C8.5724 29.9792 7.43156 29.1994 6.15105 28.053L5.81404 27.7513L6.52702 27.4398C7.30577 27.0994 9.16624 26.471 9.50141 26.435C9.54208 26.4306 9.69254 26.727 9.83582 27.0936ZM25.5262 26.8824C26.1465 27.0889 26.8981 27.3717 27.1964 27.5109L27.7387 27.7639L26.9571 28.436C25.4516 29.7307 23.5859 30.8102 21.8073 31.4157C21.3597 31.5681 20.9847 31.6838 20.9738 31.6729C20.963 31.6621 21.1239 31.454 21.3313 31.2105C22.2021 30.189 23.1164 28.6088 23.7151 27.0909L23.979 26.4218L24.1886 26.4644C24.3039 26.4878 24.9058 26.6759 25.5262 26.8824Z" fill="#7058EE"/>
</svg>
